<svg width="44" height="44" viewBox="0 0 44 44" fill="none" xmlns="http://www.w3.org/2000/svg">
<rect width="44" height="44" rx="10" fill="#0F1C2A"/>
<path fill-rule="evenodd" clip-rule="evenodd" d="M12 23C12 17.4772 16.4772 13 22 13C27.5228 13 32 17.4772 32 23V31H28C26.3431 31 25 29.6569 25 28V26C25 24.3431 26.3431 23 28 23H30C30 18.5817 26.4183 15 22 15C17.5817 15 14 18.5817 14 23H16C17.6569 23 19 24.3431 19 26V28C19 29.6569 17.6569 31 16 31H12V23ZM14 29H16C16.5523 29 17 28.5523 17 28V26C17 25.4477 16.5523 25 16 25H14V29ZM30 25V29H28C27.4477 29 27 28.5523 27 28V26C27 25.4477 27.4477 25 28 25H30Z" fill="white"/>
</svg>
