<svg width="24" height="25" viewBox="0 0 24 25" fill="none" xmlns="http://www.w3.org/2000/svg">
<rect width="24" height="24" transform="translate(0 0.5)" fill="white"/>
<path fill-rule="evenodd" clip-rule="evenodd" d="M12 2.5C11.4477 2.5 11 2.94772 11 3.5V4.58296C8.16229 5.05904 6 7.527 6 10.5L6 13.6707C4.83481 14.0825 4 15.1938 4 16.5L4 19.5H8.12602C8.57006 21.2252 10.1362 22.5 12 22.5C13.8638 22.5 15.4299 21.2252 15.874 19.5L20 19.5V16.5C20 15.1938 19.1652 14.0825 18 13.6707V10.5C18 7.527 15.8377 5.05904 13 4.58296V3.5C13 2.94772 12.5523 2.5 12 2.5ZM17 15.5L7 15.5C6.44772 15.5 6 15.9477 6 16.5V17.5H18V16.5C18 15.9477 17.5523 15.5 17 15.5ZM16 13.5V10.5C16 8.29086 14.2091 6.5 12 6.5C9.79086 6.5 8 8.29086 8 10.5L8 13.5L16 13.5ZM12 19.5C11.2996 19.5 10.7334 19.5024 10.2812 19.5232C10.6302 20.1082 11.2693 20.5 12 20.5C12.7306 20.5 13.3698 20.1082 13.7188 19.5232C13.2666 19.5024 12.7004 19.5 12 19.5Z" fill="#171725"/>
</svg>
