<svg width="44" height="44" viewBox="0 0 44 44" fill="none" xmlns="http://www.w3.org/2000/svg">
<rect width="44" height="44" rx="10" fill="#0F1C2A"/>
<path d="M16.6667 12C15.1939 12 14 13.221 14 14.7273V18.8182C14 19.3203 14.398 19.7273 14.8889 19.7273C15.3798 19.7273 15.7778 19.3203 15.7778 18.8182V14.7273C15.7778 14.2252 16.1757 13.8182 16.6667 13.8182H27.3333C27.8243 13.8182 28.2222 14.2252 28.2222 14.7273V29.2727C28.2222 29.7748 27.8243 30.1818 27.3333 30.1818H16.6667C16.1757 30.1818 15.7778 29.7748 15.7778 29.2727V25.6364C15.7778 25.1343 15.3798 24.7273 14.8889 24.7273C14.398 24.7273 14 25.1343 14 25.6364V29.2727C14 30.779 15.1939 32 16.6667 32H27.3333C28.8061 32 30 30.779 30 29.2727V14.7273C30 13.221 28.8061 12 27.3333 12H16.6667Z" fill="white"/>
<path d="M20.8508 16.8117C20.5036 16.4567 19.9408 16.4567 19.5937 16.8117C19.2466 17.1667 19.2466 17.7423 19.5937 18.0974L22.5207 21.0909H14.8889C14.398 21.0909 14 21.4979 14 22C14 22.5021 14.398 22.9091 14.8889 22.9091H22.5207L19.5937 25.9026C19.2466 26.2577 19.2466 26.8333 19.5937 27.1883C19.9408 27.5433 20.5036 27.5433 20.8508 27.1883L25.8791 22.0457L25.8344 22L25.8791 21.9543L20.8508 16.8117Z" fill="white"/>
</svg>
