<svg width="44" height="44" viewBox="0 0 44 44" fill="none" xmlns="http://www.w3.org/2000/svg">
<rect width="44" height="44" rx="10" fill="#0F1C2A"/>
<path fill-rule="evenodd" clip-rule="evenodd" d="M14 14C14 12.8954 14.8954 12 16 12H23.1716C23.702 12 24.2107 12.2107 24.5858 12.5858L29.4142 17.4142C29.7893 17.7893 30 18.298 30 18.8284V30C30 31.1046 29.1046 32 28 32H16C14.8954 32 14 31.1046 14 30V14ZM28 30H16V14H21.5V18C21.5 19.1046 22.3954 20 23.5 20H28L28 30ZM27.1716 18L23.5 14.3284V18H27.1716Z" fill="white"/>
</svg>
