<svg width="44" height="44" viewBox="0 0 44 44" fill="none" xmlns="http://www.w3.org/2000/svg">
<rect width="44" height="44" rx="10" fill="#0F1C2A"/>
<path fill-rule="evenodd" clip-rule="evenodd" d="M25 18V19H19V18C19 16.3431 20.3431 15 22 15C23.6569 15 25 16.3431 25 18ZM17 19V18C17 15.2386 19.2386 13 22 13C24.7614 13 27 15.2386 27 18V19H28C29.1046 19 30 19.8954 30 21V29C30 30.1046 29.1046 31 28 31H16C14.8954 31 14 30.1046 14 29V21C14 19.8954 14.8954 19 16 19H17ZM27 21H25H19H17H16V29H28V21H27ZM23 25.7324C23.5978 25.3866 24 24.7403 24 24C24 22.8954 23.1046 22 22 22C20.8954 22 20 22.8954 20 24C20 24.7403 20.4022 25.3866 21 25.7324V27C21 27.5523 21.4477 28 22 28C22.5523 28 23 27.5523 23 27V25.7324Z" fill="white"/>
</svg>
