<svg width="44" height="44" viewBox="0 0 44 44" fill="none" xmlns="http://www.w3.org/2000/svg">
<rect width="44" height="44" rx="10" fill="#0F1C2A"/>
<path d="M17 23C16.4477 23 16 23.4477 16 24C16 24.5523 16.4477 25 17 25H20C20.5523 25 21 24.5523 21 24C21 23.4477 20.5523 23 20 23H17Z" fill="white"/>
<path fill-rule="evenodd" clip-rule="evenodd" d="M12 27C12 28.6569 13.3431 30 15 30H29C30.6569 30 32 28.6569 32 27V18C32 16.3431 30.6569 15 29 15H15C13.3431 15 12 16.3431 12 18V27ZM15 17C14.4477 17 14 17.4477 14 18V19H30V18C30 17.4477 29.5523 17 29 17H15ZM29 28C29.5523 28 30 27.5523 30 27V21H14V27C14 27.5523 14.4477 28 15 28H29Z" fill="white"/>
</svg>
