<svg width="44" height="44" viewBox="0 0 44 44" fill="none" xmlns="http://www.w3.org/2000/svg">
<rect width="44" height="44" rx="10" fill="#0F1C2A"/>
<path fill-rule="evenodd" clip-rule="evenodd" d="M22 32C27.5228 32 32 27.5228 32 22C32 16.4772 27.5228 12 22 12C16.4772 12 12 16.4772 12 22C12 27.5228 16.4772 32 22 32ZM22 30C23.8486 30 25.5508 29.373 26.9054 28.32C24.1832 25.6449 19.8168 25.6449 17.0946 28.32C18.4492 29.373 20.1514 30 22 30ZM30 22C30 23.8488 29.3729 25.5511 28.3197 26.9058C27.0586 25.6617 25.5215 24.8654 23.9071 24.517C25.1537 23.8395 26 22.5186 26 21C26 18.7909 24.2091 17 22 17C19.7909 17 18 18.7909 18 21C18 22.5186 18.8463 23.8395 20.0929 24.517C18.4785 24.8654 16.9414 25.6617 15.6803 26.9058C14.6271 25.5511 14 23.8488 14 22C14 17.5817 17.5817 14 22 14C26.4183 14 30 17.5817 30 22ZM24 21C24 22.1046 23.1046 23 22 23C20.8954 23 20 22.1046 20 21C20 19.8954 20.8954 19 22 19C23.1046 19 24 19.8954 24 21Z" fill="white"/>
</svg>
