<svg width="24" height="24" viewBox="0 0 24 24" fill="none" xmlns="http://www.w3.org/2000/svg">
<rect width="24" height="24" transform="translate(24 24) rotate(180)" fill="white"/>
<path fill-rule="evenodd" clip-rule="evenodd" d="M8.36364 12C8.36363 9.99169 9.99169 8.36364 12 8.36364C14.0083 8.36364 15.6364 9.99169 15.6364 12C15.6364 14.0083 14.0083 15.6364 12 15.6364C9.99169 15.6364 8.36364 14.0083 8.36364 12ZM10.1818 12C10.1818 10.9958 10.9958 10.1818 12 10.1818C13.0042 10.1818 13.8182 10.9958 13.8182 12C13.8182 13.0042 13.0042 13.8182 12 13.8182C10.9958 13.8182 10.1818 13.0042 10.1818 12Z" fill="#171725"/>
<path fill-rule="evenodd" clip-rule="evenodd" d="M10.1818 22L9.37828 18.7858C9.26873 18.7435 9.16045 18.6986 9.05354 18.6511L6.0586 20.4481L3.4873 17.8768L5.30545 14.8465C5.27381 14.7722 5.24337 14.6973 5.21416 14.6217L2 13.8182L2 10.1818L5.21416 9.37828C5.24831 9.28994 5.28414 9.20243 5.32161 9.11579L3.4873 6.0586L6.0586 3.48731L9.11578 5.32161C9.20242 5.28415 9.28993 5.24832 9.37828 5.21416L10.1818 2L13.8182 2L14.6217 5.21416C14.7101 5.24832 14.7976 5.28415 14.8842 5.32161L17.9414 3.48731L20.5127 6.0586L18.6784 9.11579C18.7159 9.20243 18.7517 9.28994 18.7858 9.37828L22 10.1818L22 13.8182L18.7858 14.6217C18.7566 14.6973 18.7262 14.7722 18.6945 14.8465L20.5127 17.8768L17.9414 20.4481L14.9465 18.6511C14.8395 18.6986 14.7313 18.7435 14.6217 18.7858L13.8182 22L10.1818 22ZM6.34045 18.1586L5.77676 17.5949L7.34142 14.9872L6.97833 14.1343C6.95465 14.0787 6.93187 14.0226 6.91002 13.9661L6.56998 13.0865L3.81818 12.3986L3.81818 11.6014L6.56996 10.9135L6.91001 10.0339C6.93558 9.9678 6.96239 9.90232 6.99042 9.8375L7.36094 8.98075L5.77675 6.34045L6.34044 5.77676L8.98073 7.36093L9.83747 6.99043C9.90231 6.96239 9.96781 6.93558 10.0339 6.91002L10.9135 6.56997L11.6014 3.81818L12.3986 3.81818L13.0865 6.56997L13.9661 6.91002C14.0322 6.93558 14.0977 6.96239 14.1625 6.99043L15.0193 7.36093L17.6596 5.77676L18.2232 6.34045L16.6391 8.98074L17.0096 9.83748C17.0376 9.90233 17.0644 9.96782 17.09 10.0339L17.43 10.9135L20.1818 11.6014L20.1818 12.3986L17.43 13.0865L17.09 13.9661C17.0681 14.0226 17.0453 14.0787 17.0217 14.1343L16.6586 14.9872L18.2232 17.5949L17.6596 18.1586L15.0722 16.6062L14.2091 16.9892C14.1291 17.0247 14.0481 17.0583 13.9661 17.09L13.0865 17.43L12.3986 20.1818L11.6014 20.1818L10.9135 17.43L10.0339 17.09C9.95195 17.0583 9.87092 17.0247 9.79089 16.9892L8.92778 16.6062L6.34045 18.1586Z" fill="#171725"/>
</svg>
