<svg width="349" height="346" viewBox="0 0 349 346" fill="none" xmlns="http://www.w3.org/2000/svg">
<g clip-path="url(#clip0_595_4374)">
<path d="M72.5749 95.7329H69.7784V345.746H72.5749V95.7329Z" fill="black"/>
<path d="M83.1945 120.598H82.4954V155.61H83.1945V120.598Z" fill="black"/>
<path d="M91.6958 77.1138H52.6326L33.3544 128.11H108.999L91.6958 77.1138Z" fill="#F6C949"/>
<path d="M120.203 28.9726C120.748 39.2216 122.136 49.4706 124.352 59.7195L132.833 58.3234L132.906 56.6893L134.262 58.2044L138.181 57.4451L148.556 54.6598C150.922 53.9215 154.495 52.8087 158.396 51.5945L157.323 48.5783L160.228 47.5285C159.231 39.3931 154.771 28.1958 150.349 19.3115L121.507 27.1286L120.203 28.9726Z" fill="#171724"/>
<path d="M149.937 59.0091L138.384 61.7874L136.188 49.495L146.319 47.0596L149.937 59.0091Z" fill="#EC5E48"/>
<path d="M136.188 49.495L136.856 53.2355C140.544 52.7632 143.837 51.402 147.056 49.495L146.319 47.0596L136.188 49.495Z" fill="#171724"/>
<path d="M152.254 32.7064L149.66 21.894L121.566 28.6474L124.16 39.4597C126.023 47.2243 133.822 52.0076 141.579 50.146C149.339 48.2775 154.117 40.4709 152.254 32.7064Z" fill="#EC5E48"/>
<path d="M123.918 45.3199C125.88 44.3254 126.416 41.4355 125.115 38.865C123.815 36.2945 121.171 35.0169 119.209 36.0114C117.247 37.0058 116.711 39.8958 118.012 42.4663C119.312 45.0368 121.957 46.3144 123.918 45.3199Z" fill="#EC5E48"/>
<path d="M155.928 37.4099C158.127 37.4043 159.903 35.0638 159.896 32.1824C159.889 29.3011 158.1 26.9698 155.901 26.9755C153.702 26.9812 151.926 29.3217 151.933 32.203C151.941 35.0844 153.729 37.4156 155.928 37.4099Z" fill="#EC5E48"/>
<path d="M120.406 29.9559L126.806 56.6298L130.9 55.6466L124.607 33.2661C128.149 31.0897 131.98 32.1009 135.405 30.3373L136.811 26.1524L138.181 29.4626C142.792 28.8187 145.092 28.2274 149.178 26.3553L154.642 49.943L158.511 49.0122L150.954 21.1206C148.867 13.741 143.064 10.3748 133.305 12.3098C123.587 14.6402 118.385 21.5335 120.406 29.9559Z" fill="#171724"/>
<path d="M133.305 40.795C133.885 40.6556 134.096 39.4625 133.777 38.1301C133.457 36.7978 132.728 35.8308 132.148 35.9702C131.568 36.1096 131.357 37.3027 131.676 38.6351C131.996 39.9674 132.725 40.9345 133.305 40.795Z" fill="#171724"/>
<path d="M145.806 37.6944C146.386 37.555 146.597 36.3619 146.278 35.0296C145.958 33.6972 145.229 32.7302 144.649 32.8696C144.069 33.009 143.857 34.2021 144.177 35.5345C144.497 36.8668 145.226 37.8339 145.806 37.6944Z" fill="#171724"/>
<path d="M132.612 324.625L145.938 345.424H92.9374L127.156 324.275L132.612 324.625Z" fill="#171724"/>
<path d="M158.871 179.18L173.413 282.811L227.091 236.79L187.469 149.773L158.871 179.18Z" fill="#2347CF"/>
<path d="M141.208 58.1279C127.865 60.7138 120.269 68.0969 122.15 83.0767L131.679 149.777H178.345L173.703 76.9638C170.526 58.8627 155.865 55.4371 141.208 58.1279Z" fill="white"/>
<path d="M178.345 150.124H131.679C131.504 150.124 131.357 149.994 131.333 149.823L121.804 83.1221C120.888 75.8264 122.199 69.9759 125.702 65.7314C128.928 61.8194 134.122 59.1461 141.142 57.7849H141.145C147.975 56.5322 157.641 56.1018 164.915 61.1651C169.732 64.5172 172.805 69.8114 174.046 76.9007C174.049 76.9147 174.049 76.9252 174.049 76.9392L178.691 149.753C178.698 149.851 178.663 149.945 178.597 150.015C178.534 150.085 178.443 150.124 178.345 150.124ZM131.98 149.424H177.971L173.353 77.0022C172.141 70.1159 169.166 64.9791 164.513 61.7389C157.438 56.8121 147.969 57.2425 141.271 58.4707C126.911 61.2561 120.769 69.2866 122.496 83.0312L131.98 149.424Z" fill="black"/>
<path d="M170.155 142.933L134.993 141.274C119.07 159.203 126.915 198.488 120.297 230.474L109.58 324.338L147.063 332.309L169.162 188.526L170.155 142.933Z" fill="#4D6FF0"/>
<path d="M339.915 0H177.038C172.022 0 167.956 4.06949 167.956 9.09075V336.652C167.956 341.673 172.022 345.742 177.038 345.742H339.915C344.931 345.742 348.997 341.673 348.997 336.652V9.09075C349 4.06949 344.931 0 339.915 0Z" fill="#D9F6E5"/>
<path d="M326.639 332.656H189.639C184.438 332.656 180.208 328.422 180.208 323.215V21.614C180.208 16.4073 184.438 12.1733 189.639 12.1733H326.639C331.84 12.1733 336.07 16.4073 336.07 21.614V323.215C336.07 328.422 331.84 332.656 326.639 332.656ZM189.639 12.8732C184.823 12.8732 180.907 16.7957 180.907 21.614V323.215C180.907 328.037 184.826 331.956 189.639 331.956H326.639C331.456 331.956 335.371 328.033 335.371 323.215V21.614C335.371 16.7922 331.452 12.8732 326.639 12.8732H189.639Z" fill="black"/>
<path d="M153.572 134.517H159.665L164.936 124.296C167.093 121.602 170.533 118.558 173.801 118.95L182.725 122.319C184.029 123.257 183.319 125.577 181.736 125.287L173.5 123.145L171.854 125.784L175.807 126.525L181.551 133.163C184.557 137.233 176.818 145.442 173.909 142.926C171.648 140.735 170.47 139.217 169.194 140.522C165.537 144.06 163.461 147.394 159.556 147.16H151.6L153.572 134.517Z" fill="#EC5E48"/>
<path d="M111.083 78.0552C105.787 87.2265 95.5206 125.927 94.2902 143.188C94.049 146.554 95.5626 149.752 98.8799 150.372L155.554 160.967L159.874 129.248L126.998 125.664L133.787 85.148C134.699 79.3499 137.076 68.6986 130.459 65.7698C123.16 63.4674 116.589 68.1422 111.083 78.0552Z" fill="white"/>
<path d="M155.55 161.321C155.529 161.321 155.508 161.317 155.488 161.314L98.8135 150.718C95.1221 150.029 93.7064 146.428 93.9406 143.167C95.2095 125.378 105.623 86.8172 110.779 77.8839C116.561 67.4775 123.398 63.1771 130.56 65.4375C130.574 65.441 130.585 65.4445 130.595 65.4515C136.943 68.2613 135.391 77.59 134.364 83.7625C134.28 84.2699 134.199 84.7492 134.129 85.2041L127.404 125.36L159.913 128.901C160.007 128.912 160.091 128.961 160.151 129.034C160.21 129.108 160.235 129.202 160.221 129.297L155.9 161.016C155.886 161.111 155.837 161.198 155.757 161.254C155.694 161.296 155.624 161.321 155.55 161.321ZM126.785 65.5355C121.241 65.5355 116.078 69.7869 111.387 78.2268L111.384 78.2304C106.256 87.1077 95.9016 125.493 94.6362 143.213C94.3426 147.31 96.5868 149.588 98.9428 150.026L155.257 160.554L159.479 129.552L126.96 126.011C126.866 126.001 126.778 125.952 126.719 125.875C126.659 125.798 126.635 125.7 126.652 125.605L133.441 85.0886C133.511 84.6373 133.591 84.1544 133.679 83.647C134.668 77.6915 136.167 68.6987 130.337 66.0989C129.134 65.7244 127.949 65.5355 126.785 65.5355Z" fill="black"/>
<path d="M143.288 57.9458L138.904 71.3965L130.218 62.2182C132.71 60.2692 137.482 58.4497 143.288 57.9458Z" fill="white"/>
<path d="M138.908 71.7463C138.814 71.7463 138.719 71.7078 138.653 71.6378L129.97 62.4596C129.903 62.3896 129.868 62.2917 129.875 62.1937C129.882 62.0957 129.931 62.0047 130.008 61.9453C132.84 59.7303 137.915 58.0647 143.26 57.5993C143.375 57.5923 143.491 57.6378 143.564 57.7288C143.637 57.8198 143.658 57.9423 143.624 58.0542L139.24 71.5049C139.202 71.6204 139.104 71.7113 138.985 71.7393C138.957 71.7428 138.932 71.7463 138.908 71.7463ZM130.746 62.2637L138.758 70.7281L142.792 58.3447C137.111 58.9185 132.923 60.6891 130.746 62.2637Z" fill="black"/>
<path d="M143.718 57.7288L154.946 67.173L159.871 58.964C154.103 57.2984 149.583 56.7946 143.718 57.7288Z" fill="white"/>
<path d="M154.946 67.5228C154.865 67.5228 154.785 67.4948 154.722 67.4423L143.494 57.9982C143.389 57.9107 143.347 57.7672 143.382 57.6378C143.417 57.5048 143.529 57.4068 143.665 57.3858C149.234 56.5005 153.803 56.8505 159.972 58.628C160.077 58.6595 160.161 58.7365 160.2 58.838C160.238 58.9394 160.231 59.0514 160.175 59.1459L155.25 67.3549C155.197 67.4423 155.11 67.5018 155.009 67.5193C154.984 67.5193 154.963 67.5228 154.946 67.5228ZM144.536 57.9597L154.855 66.641L159.336 59.1739C153.778 57.6133 149.524 57.2599 144.536 57.9597Z" fill="black"/>
<path d="M158.665 31.7021C158.609 31.7021 158.55 31.6811 158.504 31.6391C157.291 30.5474 156.022 30.18 154.621 30.5229C154.491 30.5544 154.362 30.4739 154.33 30.3444C154.299 30.215 154.379 30.082 154.509 30.0505C156.075 29.6691 157.487 30.0715 158.829 31.2787C158.927 31.3697 158.938 31.5202 158.847 31.6216C158.794 31.6776 158.728 31.7021 158.665 31.7021Z" fill="black"/>
<path d="M156.159 33.4096C156.138 33.4096 156.117 33.4061 156.099 33.4026C155.97 33.3676 155.893 33.2381 155.924 33.1087L156.645 30.3129C156.679 30.1834 156.812 30.1064 156.938 30.1379C157.067 30.1729 157.144 30.3024 157.113 30.4318L156.393 33.2276C156.365 33.3361 156.267 33.4096 156.159 33.4096Z" fill="black"/>
<path d="M120.294 42.3325C120.172 42.3325 120.067 42.2415 120.053 42.1155C119.871 40.3659 120.619 39.0993 122.272 38.3504C122.395 38.2945 122.538 38.3504 122.594 38.4694C122.65 38.5919 122.594 38.7353 122.472 38.7913C121.01 39.4562 120.374 40.5269 120.535 42.0665C120.549 42.1995 120.451 42.3185 120.318 42.3325C120.311 42.3325 120.301 42.3325 120.294 42.3325Z" fill="black"/>
<path d="M122.723 42.3327C122.664 42.3327 122.605 42.3117 122.556 42.2662L120.455 40.2682C120.357 40.1773 120.353 40.0233 120.444 39.9253C120.535 39.8273 120.689 39.8238 120.787 39.9148L122.888 41.9128C122.986 42.0038 122.989 42.1578 122.898 42.2557C122.853 42.3082 122.786 42.3327 122.723 42.3327Z" fill="black"/>
<path d="M177.269 140.952C177.188 140.952 177.111 140.917 177.059 140.847L173.049 135.476C172.088 134.307 171.183 133.688 170.372 133.646C169.578 133.604 168.967 134.097 168.421 134.633C168.316 134.734 168.152 134.734 168.051 134.629C167.949 134.524 167.949 134.36 168.054 134.258C168.655 133.667 169.396 133.068 170.4 133.121C171.378 133.173 172.378 133.835 173.462 135.15L177.478 140.532C177.566 140.648 177.541 140.812 177.426 140.899C177.377 140.934 177.321 140.952 177.269 140.952Z" fill="black"/>
<path d="M179.565 137.747C179.492 137.747 179.418 137.716 179.366 137.653L174.504 131.893C172.829 129.832 170.959 130.654 170.602 130.843C170.473 130.91 170.316 130.861 170.249 130.731C170.183 130.602 170.232 130.444 170.361 130.378C170.781 130.161 172.979 129.188 174.909 131.561L179.768 137.317C179.862 137.429 179.848 137.593 179.736 137.688C179.688 137.726 179.625 137.747 179.565 137.747Z" fill="black"/>
<path d="M222.4 151.513L221.233 161.604L231.255 158.763L231.761 161.919L221.551 162.657L228.203 171.048L225.221 172.759L220.635 163.182L216.293 172.759L213.287 171.048L219.845 162.531L209.729 161.919L210.187 158.763L220.17 161.667L218.887 151.513H222.4Z" fill="black"/>
<path d="M249.61 150.848L248.442 160.939L258.464 158.098L258.971 161.254L248.76 161.992L255.412 170.383L252.427 172.094L247.841 162.517L243.499 172.094L240.493 170.383L247.051 161.866L236.935 161.254L237.393 158.098L247.376 161.002L246.1 150.851H249.61V150.848Z" fill="black"/>
<path d="M275.4 150.848L274.233 160.939L284.255 158.098L284.762 161.254L274.551 161.992L281.203 170.383L278.218 172.094L273.632 162.517L269.29 172.094L266.284 170.383L272.842 161.866L262.725 161.254L263.183 158.098L273.167 161.002L271.891 150.851H275.4V150.848Z" fill="black"/>
<path d="M301.925 150.848L300.757 160.939L310.779 158.098L311.286 161.254L301.075 161.992L307.728 170.383L304.742 172.094L300.156 162.517L295.815 172.094L292.808 170.383L299.366 161.866L289.25 161.254L289.708 158.098L299.691 161.002L298.415 150.851H301.925V150.848Z" fill="black"/>
</g>
<defs>
<clipPath id="clip0_595_4374">
<rect width="349" height="345.746" fill="white"/>
</clipPath>
</defs>
</svg>
