<svg width="349" height="319" viewBox="0 0 349 319" fill="none" xmlns="http://www.w3.org/2000/svg">
<g clip-path="url(#clip0_595_3932)">
<path d="M113.832 117.376L196.538 121.923L212.489 0.194336H122.108L113.832 117.376Z" fill="#2ECC71" fill-opacity="0.18"/>
<path d="M196.706 122.129L113.626 117.563L113.642 117.364L121.926 0H212.707L212.68 0.22189L196.706 122.129ZM114.042 117.193L196.368 121.717L212.268 0.389281H122.291L114.042 117.193Z" fill="white"/>
<path d="M106.471 116.975L114.716 0.194336H0.201416L4.5354 111.369L106.471 116.975Z" fill="#2ECC71" fill-opacity="0.18"/>
<path d="M106.65 117.177L106.46 117.166L4.34563 111.556L4.33787 111.377L0 0H114.926L114.911 0.210212L106.65 117.177ZM4.72199 111.186L106.293 116.769L114.507 0.389281H0.403523L4.72199 111.186Z" fill="white"/>
<path d="M105.94 124.465L4.82642 118.906L8.78792 220.493H99.1615L105.94 124.465Z" fill="#2ECC71" fill-opacity="0.18"/>
<path d="M99.3441 220.687H8.60202L8.59426 220.501L4.625 118.7L4.8384 118.711L106.15 124.278L106.134 124.477L99.3441 220.687ZM8.97451 220.298H98.9794L105.735 124.648L5.02852 119.112L8.97451 220.298Z" fill="white"/>
<path d="M113.304 124.87L106.553 220.493H183.622L195.557 129.389L113.304 124.87Z" fill="#2ECC71" fill-opacity="0.18"/>
<path d="M183.793 220.688H106.348L106.363 220.477L113.13 124.664L113.32 124.675L195.782 129.206L183.793 220.688ZM106.763 220.298H183.451L195.34 129.572L113.487 125.072L106.763 220.298Z" fill="white"/>
</g>
<g clip-path="url(#clip1_595_3932)">
<path d="M176.666 101.502H156.38V127.478H176.666V101.502Z" fill="#F6C949"/>
<path d="M176.869 127.68H156.179V101.302H176.869V127.68ZM156.583 127.278H176.465V101.704H156.583V127.278Z" fill="#171725"/>
<path d="M166.12 109.715L156.251 101.66L156.51 101.347L166.132 109.205L175.984 101.724L176.23 102.045L166.12 109.715Z" fill="#171725"/>
<path d="M191.143 101.117C190.893 98.7156 187.382 90.239 186.078 88.9942C189.115 90.0904 190.957 94.3468 192.112 100.31C191.325 94.5355 194.488 89.7812 198.111 85.7056C195.918 90.5562 192.831 97.1857 192.678 100.077C194.185 95.2182 199.157 90.5884 203.827 88.159C199.707 92.1745 196.002 96.1578 193.147 100.077C195.889 97.3062 199.181 96.2903 202.873 96.5674C199.234 97.5873 196.12 98.9887 193.999 101.117H191.143Z" fill="#171725"/>
<path d="M194.004 101.318H191.144C191.039 101.318 190.954 101.242 190.942 101.138C190.692 98.7405 187.185 90.3281 185.937 89.1395C185.868 89.0753 185.856 88.9709 185.905 88.8906C185.953 88.8103 186.054 88.7741 186.147 88.8062C188.652 89.7097 190.514 92.7133 191.806 97.9574C192.037 92.914 195.139 88.746 197.958 85.5738C198.023 85.4975 198.136 85.4855 198.221 85.5377C198.306 85.5899 198.338 85.6983 198.294 85.7866L197.866 86.7303C196.145 90.5289 194.085 95.0663 193.249 98.102C195.369 93.7854 199.833 90.0069 203.731 87.9791C203.82 87.9349 203.929 87.959 203.989 88.0393C204.05 88.1196 204.038 88.232 203.969 88.3003C200.015 92.1551 196.888 95.5602 194.472 98.6561C196.84 96.8934 199.663 96.1224 202.891 96.3673C202.988 96.3754 203.068 96.4517 203.076 96.548C203.085 96.6444 203.024 96.7368 202.931 96.7608C198.912 97.8892 196.04 99.3588 194.145 101.258C194.109 101.294 194.056 101.318 194.004 101.318ZM191.326 100.917H193.923C195.676 99.1862 198.213 97.8089 201.651 96.7247C198.346 96.7367 195.604 97.8892 193.297 100.218C193.224 100.294 193.103 100.298 193.022 100.23C192.942 100.162 192.925 100.045 192.99 99.9612C195.349 96.7207 198.504 93.151 202.612 89.0753C198.564 91.5167 194.266 95.6445 192.873 100.138C192.845 100.234 192.752 100.294 192.643 100.278C192.542 100.262 192.473 100.17 192.477 100.07C192.622 97.3832 195.208 91.6251 197.357 86.8909C194.436 90.3642 191.58 94.8856 192.315 100.286C192.332 100.395 192.255 100.495 192.15 100.511C192.045 100.527 191.94 100.459 191.92 100.351C190.768 94.4118 189.068 90.8541 186.737 89.521C188.244 91.854 190.97 98.5035 191.326 100.917Z" fill="#171725"/>
<path d="M195.78 120.279H190.129C186.364 120.279 183.314 117.247 183.314 113.505V107.887C183.314 104.145 186.364 101.113 190.129 101.113H195.78C199.545 101.113 202.595 104.145 202.595 107.887V113.505C202.595 117.247 199.545 120.279 195.78 120.279Z" fill="#F6C949"/>
<path d="M195.781 120.48H190.13C186.26 120.48 183.114 117.352 183.114 113.506V107.888C183.114 104.041 186.26 100.913 190.13 100.913H195.781C199.651 100.913 202.798 104.041 202.798 107.888V113.506C202.798 117.352 199.651 120.48 195.781 120.48ZM190.13 101.319C186.482 101.319 183.517 104.266 183.517 107.892V113.51C183.517 117.136 186.482 120.083 190.13 120.083H195.781C199.429 120.083 202.394 117.136 202.394 113.51V107.892C202.394 104.266 199.429 101.319 195.781 101.319H190.13Z" fill="#171725"/>
<path d="M234.361 88.6011C231.25 87.1234 227.482 89.3841 224.529 94.6524L211.13 122.504C209.644 125.595 210.956 129.298 214.067 130.775C217.177 132.253 220.901 130.948 222.388 127.856L235.484 100.639C238.113 95.2708 237.467 90.0788 234.361 88.6011Z" fill="#F6C949"/>
<path d="M216.75 131.587C215.821 131.587 214.876 131.386 213.979 130.96C212.428 130.222 211.256 128.929 210.683 127.314C210.109 125.7 210.202 123.961 210.945 122.42L224.344 94.5684C227.333 89.2318 231.203 86.8788 234.443 88.4207C235.553 88.9507 236.394 89.9466 236.87 91.3078C237.759 93.8416 237.307 97.3631 235.658 100.732L222.563 127.949C221.468 130.242 219.153 131.587 216.75 131.587ZM232.411 88.3565C229.822 88.3565 227.01 90.6412 224.708 94.7491L211.313 122.592C210.618 124.038 210.529 125.668 211.066 127.182C211.604 128.696 212.702 129.908 214.157 130.599C217.162 132.028 220.773 130.76 222.211 127.772L235.307 100.555C236.911 97.2828 237.355 93.8737 236.499 91.4363C236.058 90.1795 235.287 89.2599 234.277 88.7781C233.675 88.497 233.049 88.3565 232.411 88.3565Z" fill="#171725"/>
<path d="M231.457 108.004L221.104 103.872L221.658 103.707C225.257 102.635 228.23 103.816 231.009 107.426L231.457 108.004ZM222.357 103.936L230.213 107.072C227.838 104.262 225.317 103.254 222.357 103.936Z" fill="#171725"/>
<path d="M234.164 102.539L223.811 98.4073L224.364 98.2427C227.967 97.1705 230.936 98.3511 233.715 101.961L234.164 102.539ZM225.063 98.4715L232.92 101.608C230.545 98.8008 228.024 97.7929 225.063 98.4715Z" fill="#171725"/>
<path d="M228.105 114.489L217.752 110.357L218.305 110.192C221.904 109.12 224.877 110.301 227.656 113.911L228.105 114.489ZM219 110.421L226.857 113.557C224.485 110.75 221.961 109.743 219 110.421Z" fill="#171725"/>
<path d="M206.129 130.298C213.558 130.298 219.58 124.572 219.58 117.508C219.58 110.445 213.558 104.719 206.129 104.719C198.7 104.719 192.678 110.445 192.678 117.508C192.678 124.572 198.7 130.298 206.129 130.298Z" fill="#F6C949"/>
<path d="M206.13 130.503C198.605 130.503 192.477 124.677 192.477 117.513C192.477 110.349 198.601 104.523 206.13 104.523C213.66 104.523 219.779 110.349 219.779 117.513C219.783 124.672 213.66 130.503 206.13 130.503ZM206.13 104.92C198.827 104.92 192.881 110.57 192.881 117.509C192.881 124.452 198.823 130.097 206.13 130.097C213.433 130.097 219.375 124.448 219.375 117.509C219.38 110.57 213.433 104.92 206.13 104.92Z" fill="#171725"/>
<path d="M206.129 104.719C207.874 94.56 214.907 93.9978 223.66 96.5637C220.517 103.824 214.115 105.442 206.129 104.719Z" fill="#F6C949"/>
<path d="M209.305 105.073C208.291 105.073 207.229 105.021 206.114 104.921L205.896 104.9L205.932 104.688C206.623 100.656 208.142 97.9658 210.574 96.46C213.518 94.6369 217.695 94.6088 223.722 96.3756L223.94 96.4399L223.851 96.6487C221.375 102.351 216.718 105.073 209.305 105.073ZM206.368 104.539C215.352 105.306 220.616 102.877 223.387 96.6929C217.602 95.0264 213.591 95.0586 210.788 96.7973C208.501 98.2147 207.055 100.748 206.368 104.539Z" fill="#171725"/>
<path d="M206.28 104.856L205.985 104.583C210.291 99.9695 216.063 97.2792 223.641 96.3677L223.69 96.7652C216.209 97.6687 210.513 100.315 206.28 104.856Z" fill="#171725"/>
<path d="M177.768 86.1836H181.214C181.04 101.109 192.12 119.303 206.969 135.305L205.923 136.867C176.795 137.164 161.821 104.791 177.768 86.1836Z" fill="#F6C949"/>
<path d="M205.536 137.072C191.859 137.072 179.866 129.611 174.178 117.529C169.028 106.595 170.345 94.5323 177.612 86.0557L177.672 85.9834H181.413L181.409 86.1882C181.251 99.7484 190.381 117.143 207.112 135.173L207.221 135.289L206.025 137.072H205.92C205.791 137.072 205.662 137.072 205.536 137.072ZM177.862 86.3849C170.753 94.7371 169.48 106.599 174.546 117.36C180.165 129.298 192.016 136.67 205.536 136.67C205.629 136.67 205.718 136.67 205.811 136.67L206.712 135.329C190.061 117.356 180.944 99.9893 181.009 86.389H177.862V86.3849Z" fill="#171725"/>
<path d="M205.819 137.044C196.282 131.712 188.361 124.175 183.509 115.815C178.076 106.451 176.485 96.1913 178.909 86.1406L179.3 86.233C176.901 96.1833 178.476 106.342 183.857 115.614C188.672 123.91 196.541 131.399 206.017 136.695L205.819 137.044Z" fill="#171725"/>
<path d="M232.632 127.84H142.464V171.159H232.632V127.84Z" fill="#F6C949"/>
<path d="M232.835 171.36H142.263V127.64H232.835V171.36ZM142.667 170.958H232.431V128.041H142.667V170.958Z" fill="#171725"/>
<path d="M233.961 117.906H151.952V132.261H233.961V117.906Z" fill="#F6C949"/>
<path d="M234.164 132.458H151.751V117.702H234.164V132.458ZM152.155 132.057H233.76V118.103H152.155V132.057Z" fill="#171725"/>
<path d="M135.925 301.316L125.564 318.113H167.437L143.628 304.063L140.865 300.999L135.925 301.316Z" fill="#171725"/>
<path d="M108.247 282.668L88.4293 282.998L110.913 318.113L110.056 290.607L111.171 286.644L108.247 282.668Z" fill="#171725"/>
<path d="M159.595 303.729H126.278V153.543L154.865 145.681L159.595 303.729Z" fill="#2347CF"/>
<path d="M159.596 303.93H126.279C126.166 303.93 126.077 303.842 126.077 303.729V153.543C126.077 153.455 126.137 153.375 126.226 153.351L154.813 145.488C154.874 145.472 154.939 145.484 154.987 145.521C155.035 145.557 155.068 145.613 155.068 145.677L159.798 303.725C159.798 303.778 159.778 303.834 159.741 303.87C159.701 303.91 159.648 303.93 159.596 303.93ZM126.481 303.529H159.39L154.672 145.942L126.481 153.696V303.529Z" fill="#2347CF"/>
<path d="M154.865 145.68C163.247 177.338 177.15 224.118 175.211 232.876C172.614 242.818 141.446 274.484 120.566 298.328L95.6306 276.958C112.217 256.362 135.811 230.057 135.811 223.231C135.661 212.843 112.071 190.429 112.071 171.162C112.221 158.67 115.521 153.655 119.1 145.484L119.968 142.906L152.138 143.01L154.865 145.68Z" fill="#4D6FF0"/>
<path d="M120.563 298.529C120.515 298.529 120.47 298.513 120.43 298.481L95.4983 277.107C95.4175 277.035 95.4054 276.914 95.4741 276.83C99.36 272.003 103.698 266.783 107.891 261.736C121.516 245.337 135.61 228.383 135.61 223.228C135.549 218.919 131.36 212.454 126.509 204.973C119.646 194.385 111.87 182.382 111.87 171.159C111.995 160.514 114.463 155.15 117.315 148.934C117.832 147.805 118.37 146.637 118.911 145.4L119.771 142.838C119.8 142.758 119.876 142.702 119.961 142.702L152.131 142.806C152.184 142.806 152.236 142.826 152.273 142.862L154.999 145.541C155.023 145.565 155.044 145.597 155.052 145.633C156.752 152.054 158.647 158.98 160.654 166.317C168.297 194.244 176.957 225.894 175.398 232.921C173.471 240.285 155.811 259.676 138.732 278.428C132.588 285.174 126.234 292.149 120.708 298.461C120.676 298.505 120.62 298.529 120.563 298.529ZM95.9103 276.93L120.543 298.043C126.04 291.767 132.342 284.849 138.437 278.155C155.484 259.439 173.112 240.084 175.01 232.82C176.545 225.894 167.897 194.296 160.271 166.413C158.267 159.097 156.377 152.186 154.68 145.782L152.05 143.2L120.111 143.099L119.287 145.541C118.737 146.797 118.2 147.97 117.679 149.098C114.726 155.527 112.395 160.603 112.27 171.159C112.27 182.262 120.014 194.208 126.844 204.752C131.728 212.285 135.945 218.794 136.01 223.224C136.01 228.528 122.502 244.783 108.198 261.993C104.054 266.988 99.764 272.148 95.9103 276.93Z" fill="#4D6FF0"/>
<path d="M112.121 172.886V172.484C116.289 172.484 120.369 170.894 123.035 168.224C125.014 166.244 126.053 163.831 126.04 161.245L126.073 156.419H114.468V156.017H126.481L126.444 161.245C126.461 163.94 125.378 166.453 123.322 168.509C120.579 171.252 116.39 172.886 112.121 172.886Z" fill="#171725"/>
<path d="M115.611 157.607H114.803C114.69 157.607 114.601 157.519 114.601 157.406C114.601 157.294 114.69 157.206 114.803 157.206H115.611C115.724 157.206 115.813 157.294 115.813 157.406C115.813 157.519 115.724 157.607 115.611 157.607Z" fill="#171725"/>
<path d="M122.393 157.607H120.696C120.583 157.607 120.494 157.519 120.494 157.406C120.494 157.294 120.583 157.206 120.696 157.206H122.393C122.506 157.206 122.595 157.294 122.595 157.406C122.595 157.519 122.506 157.607 122.393 157.607ZM119.004 157.607H117.307C117.194 157.607 117.105 157.519 117.105 157.406C117.105 157.294 117.194 157.206 117.307 157.206H119.004C119.117 157.206 119.206 157.294 119.206 157.406C119.206 157.519 119.113 157.607 119.004 157.607Z" fill="#171725"/>
<path d="M124.885 158.414H124.881C124.768 158.41 124.683 158.318 124.683 158.209C124.687 158.013 124.691 157.812 124.691 157.611H124.085C123.972 157.611 123.883 157.523 123.883 157.41C123.883 157.298 123.972 157.209 124.085 157.209H124.893C125.006 157.209 125.095 157.298 125.095 157.41C125.095 157.683 125.091 157.952 125.087 158.221C125.083 158.326 124.994 158.414 124.885 158.414Z" fill="#171725"/>
<path d="M115.821 170.922C115.732 170.922 115.651 170.866 115.627 170.778C115.595 170.669 115.655 170.561 115.764 170.529C116.322 170.368 116.855 170.187 117.352 169.999C117.457 169.959 117.574 170.011 117.614 170.115C117.655 170.22 117.602 170.336 117.497 170.376C116.988 170.573 116.447 170.754 115.877 170.918C115.857 170.918 115.841 170.922 115.821 170.922ZM118.967 169.694C118.895 169.694 118.826 169.653 118.79 169.585C118.737 169.485 118.778 169.364 118.875 169.316C119.384 169.055 119.86 168.762 120.292 168.453C120.381 168.389 120.511 168.409 120.575 168.501C120.64 168.589 120.62 168.718 120.527 168.782C120.078 169.103 119.585 169.4 119.06 169.673C119.028 169.686 119 169.694 118.967 169.694ZM121.698 167.73C121.646 167.73 121.597 167.71 121.557 167.67C121.476 167.593 121.476 167.465 121.557 167.385C121.945 166.995 122.3 166.57 122.611 166.12C122.676 166.027 122.801 166.007 122.89 166.068C122.983 166.132 123.007 166.256 122.942 166.345C122.619 166.814 122.247 167.26 121.844 167.666C121.799 167.71 121.751 167.73 121.698 167.73ZM123.605 164.975C123.576 164.975 123.548 164.971 123.52 164.955C123.419 164.907 123.374 164.791 123.419 164.69C123.641 164.208 123.835 163.686 123.997 163.14C124.029 163.036 124.138 162.972 124.247 163.004C124.356 163.036 124.417 163.148 124.384 163.253C124.219 163.819 124.017 164.357 123.786 164.855C123.754 164.931 123.681 164.975 123.605 164.975ZM124.574 161.763C124.562 161.763 124.55 161.763 124.538 161.759C124.429 161.739 124.356 161.635 124.372 161.526C124.465 161.008 124.538 160.454 124.586 159.876C124.594 159.763 124.695 159.683 124.804 159.695C124.918 159.703 124.998 159.803 124.986 159.912C124.934 160.502 124.861 161.068 124.768 161.598C124.756 161.695 124.671 161.763 124.574 161.763Z" fill="#171725"/>
<path d="M113.373 171.501C113.276 171.501 113.195 171.432 113.175 171.336C113.155 171.228 113.227 171.123 113.336 171.099C113.603 171.047 113.866 170.995 114.124 170.938C114.233 170.914 114.342 170.983 114.367 171.091C114.391 171.199 114.322 171.308 114.213 171.332C113.954 171.388 113.688 171.444 113.417 171.497C113.401 171.501 113.389 171.501 113.373 171.501Z" fill="#171725"/>
<path d="M138.626 72.7764L144.799 75.025L142.65 78.394L137.701 75.9486L138.626 72.7764Z" fill="white"/>
<path d="M142.651 78.5952C142.622 78.5952 142.59 78.5871 142.562 78.5751L137.613 76.1257C137.525 76.0815 137.484 75.9851 137.508 75.8888L138.433 72.7206C138.45 72.6684 138.486 72.6242 138.534 72.5961C138.583 72.572 138.643 72.568 138.696 72.5881L144.868 74.8367C144.925 74.8568 144.969 74.905 144.989 74.9612C145.01 75.0174 145.002 75.0816 144.969 75.1338L142.82 78.5028C142.784 78.563 142.715 78.5952 142.651 78.5952ZM137.941 75.8446L142.574 78.1374L144.493 75.1338L138.761 73.0458L137.941 75.8446Z" fill="#171725"/>
<path d="M150.338 46.375L153.19 66.6811L149.453 66.9743V69.5803C139.419 71.4073 133.542 68.5363 130.997 63.8302C124.784 46.5236 135.747 43.3795 150.338 46.375Z" fill="#171725"/>
<path d="M140.581 77.9604L130.345 75.005L131.662 63.6895H140.868L140.581 77.9604Z" fill="#EC5E48"/>
<path d="M140.78 78.2259L130.128 75.15L131.486 63.4932H141.079L140.78 78.2259ZM130.569 74.8569L140.389 77.6918L140.663 63.8907H131.841L130.569 74.8569Z" fill="#EC5E48"/>
<path d="M131.781 65.043C133.105 68.0385 137.04 68.9179 140.712 69.1187C140.712 69.1187 141.814 66.1673 141.625 66.1071C141.439 66.0468 131.781 65.043 131.781 65.043Z" fill="#171725"/>
<path d="M138.255 66.6806C131.582 66.6806 126.173 61.304 126.173 54.6704V46.6355L150.337 46.3745V54.6704C150.337 61.304 144.928 66.6806 138.255 66.6806Z" fill="#EC5E48"/>
<path d="M138.256 66.882C131.482 66.882 125.972 61.4049 125.972 54.671V46.4393L150.54 46.1743V54.671C150.54 61.4049 145.03 66.882 138.256 66.882ZM126.376 46.8369V54.671C126.376 61.1841 131.704 66.4804 138.256 66.4804C144.808 66.4804 150.136 61.1841 150.136 54.671V46.5799L126.376 46.8369Z" fill="#EC5E48"/>
<path d="M138.489 35.3848H136.643C129.053 35.3848 122.897 41.5043 122.897 49.0493L119.577 68.4279L127.421 69.5844L127.542 59.3249L128.144 69.9779H130.835L129.219 54.4541C128.698 50.7921 140.19 50.3343 141.854 46.6441L143.429 47.8487C144.75 48.4069 148.204 48.4792 150.551 47.8447V47.1621C150.539 40.653 145.033 35.3848 138.489 35.3848Z" fill="#171725"/>
<path d="M126.033 59.9141C128.227 59.2681 129.363 56.5846 128.57 53.9204C127.776 51.2561 125.354 49.62 123.159 50.2659C120.964 50.9119 119.829 53.5954 120.622 56.2596C121.416 58.9239 123.838 60.56 126.033 59.9141Z" fill="#EC5E48"/>
<path d="M125.051 60.2566C124.247 60.2566 123.439 59.9996 122.692 59.4937C121.629 58.7789 120.83 57.6506 120.43 56.3174C119.606 53.5508 120.805 50.752 123.104 50.0734C125.402 49.3948 127.943 51.0974 128.767 53.864C129.163 55.1971 129.11 56.5785 128.61 57.751C128.105 58.9395 127.212 59.7747 126.089 60.104C125.754 60.2044 125.402 60.2566 125.051 60.2566ZM124.142 50.3264C123.835 50.3264 123.524 50.3706 123.221 50.4589C121.137 51.0733 120.058 53.6512 120.818 56.205C121.189 57.4498 121.932 58.5019 122.918 59.1644C123.892 59.8189 124.978 60.0197 125.98 59.7225C126.982 59.4294 127.786 58.6705 128.242 57.5984C128.702 56.5102 128.755 55.2252 128.383 53.9805C127.733 51.796 125.948 50.3264 124.142 50.3264Z" fill="#EC5E48"/>
<path d="M122.857 55.2894C122.845 55.2894 122.829 55.2894 122.817 55.2853C122.708 55.2613 122.639 55.1568 122.664 55.0484C122.987 53.5426 124.308 52.4424 125.063 52.1011C125.164 52.0569 125.285 52.1011 125.33 52.2015C125.374 52.3019 125.33 52.4223 125.229 52.4665C124.542 52.7757 123.346 53.7715 123.055 55.1328C123.035 55.2251 122.95 55.2894 122.857 55.2894Z" fill="#171725"/>
<path d="M125.657 56.1727C125.6 56.1727 125.544 56.1486 125.503 56.1044L123.512 53.8196C123.439 53.7353 123.447 53.6108 123.532 53.5345C123.617 53.4622 123.742 53.4703 123.819 53.5546L125.81 55.8394C125.883 55.9237 125.875 56.0482 125.79 56.1245C125.754 56.1566 125.705 56.1727 125.657 56.1727Z" fill="#171725"/>
<path d="M128.141 69.9736L126.574 47.9448H128.141L130.831 69.9736H128.141Z" fill="#171725"/>
<path d="M138.797 55.197C139.35 55.197 139.799 54.1021 139.799 52.7516C139.799 51.401 139.35 50.3062 138.797 50.3062C138.244 50.3062 137.795 51.401 137.795 52.7516C137.795 54.1021 138.244 55.197 138.797 55.197Z" fill="#171725"/>
<path d="M146.973 54.2291C147.43 54.2291 147.801 53.3518 147.801 52.2696C147.801 51.1874 147.43 50.3101 146.973 50.3101C146.516 50.3101 146.145 51.1874 146.145 52.2696C146.145 53.3518 146.516 54.2291 146.973 54.2291Z" fill="#171725"/>
<path d="M119.019 145.681H154.861L156.368 104.382C156.767 89.4686 144.419 76.1333 132.365 73.7802C124.723 70.0338 111.914 86.4048 110.084 102.029C107.826 121.287 111.38 138.939 119.019 145.681Z" fill="white"/>
<path d="M155.06 145.882H118.947L118.891 145.83C111.224 139.068 107.609 121.456 109.891 102.001C110.541 96.4397 112.63 90.4446 115.764 85.1161C118.749 80.0486 122.425 76.0773 125.847 74.2262C128.29 72.9051 130.569 72.6802 132.435 73.5837C144.19 75.8926 156.987 89.1034 156.574 104.382L155.06 145.882ZM119.097 145.48H154.668L156.167 104.374C156.57 89.2841 143.927 76.2419 132.326 73.9772L132.277 73.9612C130.528 73.1059 128.371 73.3187 126.036 74.5836C118.034 78.9122 111.43 92.2837 110.287 102.053C108.025 121.331 111.567 138.763 119.097 145.48Z" fill="#171725"/>
<path d="M130.253 70.3145L126.338 74.1653L138.142 84.3404C138.162 84.3565 138.186 84.3485 138.198 84.3284L142.46 76.3938L130.253 70.3145Z" fill="white"/>
<path d="M138.167 84.5538C138.114 84.5538 138.062 84.5337 138.017 84.5016L126.21 74.3184C126.17 74.2822 126.141 74.23 126.141 74.1738C126.141 74.1176 126.162 74.0654 126.202 74.0253L130.116 70.1744C130.177 70.1142 130.27 70.0982 130.351 70.1383L142.562 76.2217C142.61 76.2458 142.647 76.29 142.663 76.3422C142.679 76.3944 142.675 76.4506 142.647 76.4988L138.385 84.4333C138.357 84.4855 138.284 84.5417 138.223 84.5538C138.203 84.5497 138.183 84.5538 138.167 84.5538ZM138.025 84.2325C138.025 84.2365 138.021 84.2365 138.021 84.2406L138.025 84.2325ZM126.638 74.1578L138.122 84.0559L142.19 76.4827L130.294 70.5599L126.638 74.1578Z" fill="#171725"/>
<path d="M186.085 146.492L198.046 155.438C200.146 156.924 201.657 156.591 203.584 157.43C204.889 157.928 207.7 163.055 210.827 165.754C210.653 166.71 210.156 167.364 208.532 166.966C206.714 166.424 204.473 164.854 202.497 162.264C202.223 161.947 201.584 162.184 201.867 162.847C203.148 165.718 204.662 170.091 204.105 171.239C202.78 172.668 201.633 173.769 199.783 173.733C198.325 174.76 196.648 175.234 194.62 174.801C193.312 175.367 192.213 175.817 190.751 174.801C187.976 172.315 186.901 167.119 187.236 161.686L178.491 154.486L186.085 146.492Z" fill="#EC5E48"/>
<path d="M192.493 175.608C191.92 175.608 191.31 175.436 190.635 174.966C188.022 172.625 186.68 167.706 187.028 161.779L178.194 154.511L186.062 146.223L198.165 155.278C199.409 156.157 200.423 156.378 201.497 156.607C202.18 156.756 202.891 156.908 203.658 157.242C204.329 157.495 205.29 158.787 206.514 160.422C207.77 162.108 209.338 164.204 210.953 165.598L211.038 165.674L211.018 165.786C210.905 166.405 210.679 166.802 210.307 167.043C209.879 167.316 209.281 167.356 208.473 167.16C206.409 166.541 204.171 164.803 202.325 162.385C202.261 162.309 202.143 162.309 202.075 162.353C201.97 162.417 201.958 162.574 202.042 162.767C203.101 165.136 204.931 169.979 204.276 171.324L204.244 171.372C202.903 172.821 201.727 173.934 199.861 173.934C199.853 173.934 199.845 173.934 199.837 173.934C198.229 175.05 196.529 175.399 194.634 175.01C193.931 175.319 193.24 175.608 192.493 175.608ZM178.787 154.475L187.448 161.602L187.44 161.703C187.08 167.553 188.369 172.396 190.885 174.652C192.259 175.604 193.265 175.17 194.541 174.616L194.602 174.592L194.666 174.604C196.488 174.994 198.128 174.657 199.667 173.568L199.72 173.528H199.788C201.533 173.564 202.608 172.552 203.933 171.123C204.365 170.119 203.137 166.184 201.679 162.923C201.481 162.458 201.647 162.144 201.865 162.008C202.115 161.855 202.45 161.903 202.644 162.124C204.446 164.485 206.611 166.176 208.586 166.766C209.269 166.935 209.766 166.915 210.093 166.702C210.343 166.541 210.505 166.26 210.602 165.823C208.986 164.401 207.439 162.329 206.191 160.659C205.056 159.141 204.074 157.828 203.509 157.611C202.765 157.29 202.079 157.141 201.412 156.997C200.346 156.768 199.239 156.527 197.926 155.595L186.107 146.753L178.787 154.475Z" fill="#EC5E48"/>
<path d="M194.622 175.002C194.549 175.002 194.481 174.962 194.444 174.894C193.568 173.243 192.622 170.938 192.606 169.429C192.606 169.316 192.695 169.228 192.804 169.224C192.913 169.22 193.006 169.312 193.01 169.421C193.026 170.862 193.988 173.167 194.804 174.701C194.856 174.797 194.82 174.922 194.719 174.974C194.687 174.994 194.654 175.002 194.622 175.002Z" fill="#171725"/>
<path d="M199.784 173.934C199.736 173.934 199.687 173.918 199.651 173.882C198.665 173.006 197.365 168.975 197.308 168.802C197.276 168.698 197.332 168.585 197.442 168.549C197.547 168.513 197.66 168.573 197.696 168.678C197.708 168.718 199.017 172.773 199.922 173.576C200.007 173.649 200.011 173.777 199.938 173.862C199.893 173.91 199.841 173.934 199.784 173.934Z" fill="#171725"/>
<path d="M192.399 140.878L176.189 160.815C150.345 143.247 127.138 125.306 124.125 104.016C122.452 87.802 139.737 83.2324 144.799 92.239C153.815 108.449 172.586 124.383 192.399 140.878Z" fill="white"/>
<path d="M176.23 161.085L176.077 160.98C151.392 144.2 127.03 125.981 123.924 104.045C123.5 99.9452 124.267 96.251 126.141 93.3438C127.777 90.8101 130.233 88.9268 133.057 88.0394C137.945 86.5055 142.731 88.1518 144.973 92.1392C154.284 108.88 174.602 125.797 192.525 140.722L192.679 140.851L176.23 161.085ZM136.652 87.8748C135.525 87.8748 134.358 88.0515 133.178 88.4209C128.504 89.8865 123.378 94.8456 124.324 103.997C127.402 125.72 151.59 143.842 176.15 160.542L192.117 140.903C174.203 125.985 153.941 109.092 144.622 92.3359C143.014 89.4769 140.025 87.8748 136.652 87.8748Z" fill="#171725"/>
<path d="M177.769 86.1842L176.958 82.9598L180.969 82.2651L181.211 86.1842H177.769Z" fill="#171725"/>
<path d="M204.983 104.768L204.131 97.4634H206.587L206.167 104.739L204.983 104.768Z" fill="#171725"/>
</g>
<path d="M3.34521 318.113H349" stroke="#171725"/>
<defs>
<clipPath id="clip0_595_3932">
<rect width="212.711" height="220.687" fill="white"/>
</clipPath>
<clipPath id="clip1_595_3932">
<rect width="148.897" height="282.728" fill="white" transform="translate(88.4293 35.3848)"/>
</clipPath>
</defs>
</svg>
