<svg width="44" height="44" viewBox="0 0 44 44" fill="none" xmlns="http://www.w3.org/2000/svg">
<rect width="44" height="44" rx="22" fill="#0F1C2A"/>
<path fill-rule="evenodd" clip-rule="evenodd" d="M26 23C26 25.2091 24.2091 27 22 27C19.7909 27 18 25.2091 18 23C18 20.7909 19.7909 19 22 19C24.2091 19 26 20.7909 26 23ZM24 23C24 24.1046 23.1046 25 22 25C20.8954 25 20 24.1046 20 23C20 21.8954 20.8954 21 22 21C23.1046 21 24 21.8954 24 23Z" fill="white"/>
<path fill-rule="evenodd" clip-rule="evenodd" d="M25 14C25.6295 14 26.2223 14.2964 26.6 14.8L29 18H30C31.1046 18 32 18.8954 32 20V29C32 30.1046 31.1046 31 30 31H14C12.8954 31 12 30.1046 12 29V20C12 18.8954 12.8954 18 14 18H15L17.4 14.8C17.7777 14.2964 18.3705 14 19 14H25ZM16 20L19 16L25 16L28 20H30V29H14V20H16Z" fill="white"/>
</svg>
