<svg width="44" height="44" viewBox="0 0 44 44" fill="none" xmlns="http://www.w3.org/2000/svg">
<rect width="44" height="44" rx="10" fill="#AA0023"/>
<path fill-rule="evenodd" clip-rule="evenodd" d="M18.6522 17.7826V14.913C18.6522 13.8565 19.5087 13 20.5652 13H31.087C32.1435 13 33 13.8565 33 14.913V26.3913C33 27.4479 32.1435 28.3043 31.087 28.3043C31.087 29.8892 29.8022 31.1739 28.2174 31.1739C26.6326 31.1739 25.3478 29.8892 25.3478 28.3043H18.6522C18.6522 29.8892 17.3674 31.1739 15.7826 31.1739C14.1978 31.1739 12.913 29.8892 12.913 28.3043C11.8565 28.3043 11 27.4479 11 26.3913V24.4783C11 23.6884 11.3191 22.9731 11.8354 22.4542C11.8521 22.3114 11.9023 22.1683 11.9914 22.0346L14.2582 18.6345C14.613 18.1023 15.2103 17.7826 15.8499 17.7826H18.6522ZM20.5652 14.913H31.087V26.3913H20.5652V14.913ZM18.6522 19.6957H15.8499L14.5746 21.6087H18.6522V19.6957ZM18.6522 23.5217H13.8696C13.3413 23.5217 12.913 23.95 12.913 24.4783L12.913 26.3913H18.6522V23.5217ZM28.2174 28.3043C27.8795 28.3043 27.6125 28.3224 27.4059 28.3558C27.3503 28.3649 27.3033 28.3743 27.2641 28.3835C27.3043 28.8747 27.7158 29.2609 28.2174 29.2609C28.719 29.2609 29.1305 28.8747 29.1707 28.3835C29.1315 28.3743 29.0845 28.3649 29.0289 28.3558C28.8223 28.3224 28.5553 28.3043 28.2174 28.3043ZM15.7826 28.3043C15.4447 28.3043 15.1777 28.3224 14.9711 28.3558C14.9155 28.3649 14.8685 28.3743 14.8293 28.3835C14.8695 28.8747 15.281 29.2609 15.7826 29.2609C16.2842 29.2609 16.6957 28.8747 16.7359 28.3835C16.6967 28.3743 16.6497 28.3649 16.5941 28.3558C16.3875 28.3224 16.1205 28.3043 15.7826 28.3043Z" fill="white"/>
</svg>
