<svg width="44" height="44" viewBox="0 0 44 44" fill="none" xmlns="http://www.w3.org/2000/svg">
<rect width="44" height="44" rx="10" fill="#AA0023"/>
<path fill-rule="evenodd" clip-rule="evenodd" d="M12.0011 21.9738C11.9875 22.2761 12.103 22.5721 12.319 22.7881L20.8928 31.3619C21.7333 32.2024 23.0842 32.2141 23.9102 31.3881L31.3881 23.9102C32.2141 23.0842 32.2024 21.7333 31.3619 20.8928L22.7881 12.319C22.5721 12.103 22.2761 11.9874 21.9738 12.0011L12.9992 12.0008C12.4554 12.0253 12.0245 12.4561 12 13L12.0011 21.9738ZM21.6319 14.154H14.154L14.154 21.6319L22.3884 29.8663L29.8663 22.3884L21.6319 14.154ZM20.0142 17.023C20.8546 17.8634 20.8663 19.2143 20.0403 20.0403C19.2143 20.8663 17.8634 20.8546 17.023 20.0142C16.1825 19.1737 16.1708 17.8228 16.9968 16.9968C17.8228 16.1708 19.1737 16.1825 20.0142 17.023Z" fill="white"/>
</svg>
