<svg width="59" height="50" viewBox="0 0 59 50" fill="none" xmlns="http://www.w3.org/2000/svg">
<path fill-rule="evenodd" clip-rule="evenodd" d="M19.25 3.83333C19.25 3.3731 19.6231 3 20.0833 3H21.4843C22.4844 3 23.3883 3.59599 23.7822 4.5152L24.2043 5.5H38.13C38.6882 5.5 39.0886 6.03811 38.9282 6.57279L36.9282 13.2395C36.8224 13.5919 36.498 13.8333 36.13 13.8333H24.25C23.7898 13.8333 23.4167 14.2064 23.4167 14.6667C23.4167 15.1269 23.7898 15.5 24.25 15.5H38.4167C38.8769 15.5 39.25 15.8731 39.25 16.3333C39.25 16.7936 38.8769 17.1667 38.4167 17.1667H37.4411C37.5332 17.4273 37.5833 17.7078 37.5833 18C37.5833 19.3807 36.464 20.5 35.0833 20.5C33.7026 20.5 32.5833 19.3807 32.5833 18C32.5833 17.7078 32.6335 17.4273 32.7256 17.1667H29.9411C30.0332 17.4273 30.0833 17.7078 30.0833 18C30.0833 19.3807 28.964 20.5 27.5833 20.5C26.2026 20.5 25.0833 19.3807 25.0833 18C25.0833 17.7078 25.1335 17.4273 25.2256 17.1667H24.25C22.8693 17.1667 21.75 16.0474 21.75 14.6667C21.75 13.286 22.8693 12.1667 24.25 12.1667H24.5833L23.0322 6.99609L22.2503 5.17173C22.119 4.86533 21.8177 4.66667 21.4843 4.66667H20.0833C19.6231 4.66667 19.25 4.29357 19.25 3.83333ZM26.3234 12.1667H35.5099L37.0099 7.16667H24.8234L26.3234 12.1667ZM27.5833 17.1667C27.1231 17.1667 26.75 17.5398 26.75 18C26.75 18.4602 27.1231 18.8333 27.5833 18.8333C28.0436 18.8333 28.4167 18.4602 28.4167 18C28.4167 17.5398 28.0436 17.1667 27.5833 17.1667ZM35.0833 17.1667C34.6231 17.1667 34.25 17.5398 34.25 18C34.25 18.4602 34.6231 18.8333 35.0833 18.8333C35.5436 18.8333 35.9167 18.4602 35.9167 18C35.9167 17.5398 35.5436 17.1667 35.0833 17.1667Z" fill="#0F1C2A"/>
<path d="M19.3169 44.144C18.2289 44.144 17.2743 43.9093 16.4529 43.44C15.6423 42.9707 15.0183 42.2987 14.5809 41.424C14.1436 40.5493 13.9249 39.5253 13.9249 38.352C13.9249 37.1787 14.1436 36.16 14.5809 35.296C15.0183 34.4213 15.6423 33.7493 16.4529 33.28C17.2743 32.8107 18.2289 32.576 19.3169 32.576C20.0209 32.576 20.6823 32.6827 21.3009 32.896C21.9196 33.0987 22.4689 33.3973 22.9489 33.792C23.0876 33.8987 23.1836 34.0107 23.2369 34.128C23.2903 34.2453 23.3169 34.3893 23.3169 34.56C23.3169 34.7947 23.2529 34.992 23.1249 35.152C22.9969 35.312 22.8423 35.392 22.6609 35.392C22.4476 35.392 22.2289 35.3173 22.0049 35.168C21.5463 34.8267 21.1196 34.592 20.7249 34.464C20.3303 34.3253 19.8929 34.256 19.4129 34.256C18.3036 34.256 17.4609 34.6027 16.8849 35.296C16.3196 35.9893 16.0369 37.008 16.0369 38.352C16.0369 39.7067 16.3196 40.7307 16.8849 41.424C17.4609 42.1173 18.3036 42.464 19.4129 42.464C19.8716 42.464 20.2929 42.3947 20.6769 42.256C21.0716 42.1173 21.5143 41.8827 22.0049 41.552C22.1116 41.488 22.2183 41.4347 22.3249 41.392C22.4316 41.3493 22.5436 41.328 22.6609 41.328C22.8423 41.328 22.9969 41.408 23.1249 41.568C23.2529 41.728 23.3169 41.9253 23.3169 42.16C23.3169 42.32 23.2903 42.464 23.2369 42.592C23.1836 42.7093 23.0876 42.8213 22.9489 42.928C22.4689 43.3227 21.9196 43.6267 21.3009 43.84C20.6823 44.0427 20.0209 44.144 19.3169 44.144ZM28.2804 35.984C29.3684 35.984 30.1738 36.256 30.6964 36.8C31.2298 37.3333 31.4964 38.1493 31.4964 39.248V43.152C31.4964 43.44 31.4111 43.6693 31.2404 43.84C31.0698 44 30.8351 44.08 30.5364 44.08C30.2591 44.08 30.0298 43.9947 29.8484 43.824C29.6778 43.6533 29.5924 43.4293 29.5924 43.152V42.8C29.4111 43.216 29.1231 43.5413 28.7284 43.776C28.3444 44.0107 27.8964 44.128 27.3844 44.128C26.8618 44.128 26.3871 44.0213 25.9604 43.808C25.5338 43.5947 25.1978 43.3013 24.9524 42.928C24.7071 42.5547 24.5844 42.1387 24.5844 41.68C24.5844 41.104 24.7284 40.6507 25.0164 40.32C25.3151 39.9893 25.7951 39.7493 26.4564 39.6C27.1178 39.4507 28.0298 39.376 29.1924 39.376H29.5924V39.008C29.5924 38.4853 29.4804 38.1067 29.2564 37.872C29.0324 37.6267 28.6698 37.504 28.1684 37.504C27.8591 37.504 27.5444 37.552 27.2244 37.648C26.9044 37.7333 26.5258 37.8613 26.0884 38.032C25.8111 38.1707 25.6084 38.24 25.4804 38.24C25.2884 38.24 25.1284 38.1707 25.0004 38.032C24.8831 37.8933 24.8244 37.712 24.8244 37.488C24.8244 37.3067 24.8671 37.152 24.9524 37.024C25.0484 36.8853 25.2031 36.7573 25.4164 36.64C25.7898 36.4373 26.2324 36.2773 26.7444 36.16C27.2671 36.0427 27.7791 35.984 28.2804 35.984ZM27.7844 42.688C28.3178 42.688 28.7498 42.512 29.0804 42.16C29.4218 41.7973 29.5924 41.3333 29.5924 40.768V40.432H29.3044C28.5898 40.432 28.0351 40.464 27.6404 40.528C27.2458 40.592 26.9631 40.704 26.7924 40.864C26.6218 41.024 26.5364 41.2427 26.5364 41.52C26.5364 41.8613 26.6538 42.144 26.8884 42.368C27.1338 42.5813 27.4324 42.688 27.7844 42.688ZM37.9971 36.016C38.2744 35.9947 38.4931 36.0533 38.6531 36.192C38.8131 36.3307 38.8931 36.5387 38.8931 36.816C38.8931 37.104 38.8237 37.3173 38.6851 37.456C38.5464 37.5947 38.2957 37.6853 37.9331 37.728L37.4531 37.776C36.8237 37.84 36.3597 38.0533 36.0611 38.416C35.7731 38.7787 35.6291 39.232 35.6291 39.776V43.136C35.6291 43.4453 35.5331 43.6853 35.3411 43.856C35.1491 44.016 34.9091 44.096 34.6211 44.096C34.3331 44.096 34.0931 44.016 33.9011 43.856C33.7197 43.6853 33.6291 43.4453 33.6291 43.136V36.944C33.6291 36.6453 33.7197 36.416 33.9011 36.256C34.0931 36.096 34.3277 36.016 34.6051 36.016C34.8824 36.016 35.1064 36.096 35.2771 36.256C35.4477 36.4053 35.5331 36.624 35.5331 36.912V37.552C35.7357 37.0827 36.0344 36.72 36.4291 36.464C36.8344 36.208 37.2824 36.064 37.7731 36.032L37.9971 36.016ZM44.6368 42.608C45.1701 42.64 45.4368 42.88 45.4368 43.328C45.4368 43.584 45.3301 43.7813 45.1168 43.92C44.9141 44.048 44.6208 44.1013 44.2368 44.08L43.8048 44.048C42.0128 43.92 41.1168 42.96 41.1168 41.168V37.68H40.3168C40.0288 37.68 39.8048 37.616 39.6448 37.488C39.4955 37.36 39.4208 37.1733 39.4208 36.928C39.4208 36.6827 39.4955 36.496 39.6448 36.368C39.8048 36.24 40.0288 36.176 40.3168 36.176H41.1168V34.704C41.1168 34.416 41.2075 34.1867 41.3888 34.016C41.5701 33.8453 41.8155 33.76 42.1248 33.76C42.4235 33.76 42.6635 33.8453 42.8448 34.016C43.0261 34.1867 43.1168 34.416 43.1168 34.704V36.176H44.4768C44.7648 36.176 44.9835 36.24 45.1328 36.368C45.2928 36.496 45.3728 36.6827 45.3728 36.928C45.3728 37.1733 45.2928 37.36 45.1328 37.488C44.9835 37.616 44.7648 37.68 44.4768 37.68H43.1168V41.312C43.1168 42.1013 43.4795 42.5227 44.2048 42.576L44.6368 42.608Z" fill="#0F1C2A"/>
</svg>
