<svg width="59" height="50" viewBox="0 0 59 50" fill="none" xmlns="http://www.w3.org/2000/svg">
<path fill-rule="evenodd" clip-rule="evenodd" d="M33.2633 16.5571C31.8341 17.7517 29.9937 18.4706 27.9853 18.4706C23.4371 18.4706 19.75 14.7835 19.75 10.2353C19.75 5.68707 23.4371 2 27.9853 2C32.5335 2 36.2206 5.68707 36.2206 10.2353C36.2206 12.0085 35.6602 13.6508 34.7068 14.9948C34.8824 15.0496 35.0477 15.1466 35.1868 15.2858L39.4054 19.5043C39.8649 19.9638 39.8649 20.7087 39.4054 21.1681C38.946 21.6276 38.2011 21.6276 37.7416 21.1681L33.5231 16.9495C33.4073 16.8338 33.3208 16.7 33.2633 16.5571ZM33.8676 10.2353C33.8676 13.484 31.234 16.1176 27.9853 16.1176C24.7366 16.1176 22.1029 13.484 22.1029 10.2353C22.1029 6.98656 24.7366 4.35294 27.9853 4.35294C31.234 4.35294 33.8676 6.98656 33.8676 10.2353Z" fill="#0F1C2A"/>
<path d="M3.30125 44C2.94925 44 2.67725 43.9093 2.48525 43.728C2.30392 43.536 2.21325 43.264 2.21325 42.912V33.808C2.21325 33.456 2.30392 33.1893 2.48525 33.008C2.67725 32.816 2.94925 32.72 3.30125 32.72H9.01325C9.27992 32.72 9.48258 32.7893 9.62125 32.928C9.77058 33.0667 9.84525 33.264 9.84525 33.52C9.84525 33.7867 9.77058 33.9947 9.62125 34.144C9.48258 34.2827 9.27992 34.352 9.01325 34.352H4.18125V37.456H8.66125C8.93858 37.456 9.14658 37.5253 9.28525 37.664C9.42392 37.8027 9.49325 38.0053 9.49325 38.272C9.49325 38.5387 9.42392 38.7413 9.28525 38.88C9.14658 39.0187 8.93858 39.088 8.66125 39.088H4.18125V42.368H9.01325C9.27992 42.368 9.48258 42.4373 9.62125 42.576C9.77058 42.7147 9.84525 42.9173 9.84525 43.184C9.84525 43.4507 9.77058 43.6533 9.62125 43.792C9.48258 43.9307 9.27992 44 9.01325 44H3.30125ZM12.2121 44.08C11.9775 44.08 11.7801 44.016 11.6201 43.888C11.4708 43.7493 11.3908 43.5733 11.3801 43.36C11.3801 43.1467 11.4708 42.9227 11.6521 42.688L14.2441 39.488V40.432L11.8121 37.44C11.6201 37.2053 11.5295 36.9813 11.5401 36.768C11.5508 36.5547 11.6308 36.384 11.7801 36.256C11.9401 36.1173 12.1375 36.048 12.3721 36.048C12.6175 36.048 12.8201 36.0907 12.9801 36.176C13.1508 36.2613 13.3055 36.3947 13.4441 36.576L15.3641 39.04H14.6601L16.5961 36.576C16.7455 36.3947 16.9001 36.2613 17.0601 36.176C17.2201 36.0907 17.4175 36.048 17.6521 36.048C17.8975 36.048 18.0948 36.1173 18.2441 36.256C18.3935 36.3947 18.4681 36.5707 18.4681 36.784C18.4788 36.9973 18.3881 37.2213 18.1961 37.456L15.7801 40.416V39.52L18.3721 42.688C18.5641 42.912 18.6548 43.1307 18.6441 43.344C18.6335 43.5573 18.5481 43.7333 18.3881 43.872C18.2388 44.0107 18.0415 44.08 17.7961 44.08C17.5615 44.08 17.3641 44.0373 17.2041 43.952C17.0441 43.8667 16.8895 43.7333 16.7401 43.552L14.6601 40.928H15.3321L13.2681 43.552C13.1295 43.7227 12.9801 43.856 12.8201 43.952C12.6601 44.0373 12.4575 44.08 12.2121 44.08ZM21.4945 47.008C21.1745 47.008 20.9292 46.9227 20.7585 46.752C20.5878 46.5813 20.5025 46.3307 20.5025 46V37.056C20.5025 36.7253 20.5878 36.4747 20.7585 36.304C20.9292 36.1333 21.1692 36.048 21.4785 36.048C21.7985 36.048 22.0438 36.1333 22.2145 36.304C22.3852 36.4747 22.4705 36.7253 22.4705 37.056V38.304L22.2945 37.824C22.4545 37.28 22.7798 36.8427 23.2705 36.512C23.7718 36.1813 24.3532 36.016 25.0145 36.016C25.6972 36.016 26.2945 36.1813 26.8065 36.512C27.3292 36.8427 27.7345 37.312 28.0225 37.92C28.3105 38.5173 28.4545 39.2373 28.4545 40.08C28.4545 40.912 28.3105 41.6373 28.0225 42.256C27.7345 42.864 27.3345 43.3333 26.8225 43.664C26.3105 43.9947 25.7078 44.16 25.0145 44.16C24.3638 44.16 23.7932 44 23.3025 43.68C22.8118 43.3493 22.4812 42.9227 22.3105 42.4H22.5025V46C22.5025 46.3307 22.4118 46.5813 22.2305 46.752C22.0598 46.9227 21.8145 47.008 21.4945 47.008ZM24.4545 42.64C24.8492 42.64 25.1958 42.544 25.4945 42.352C25.7932 42.16 26.0225 41.8773 26.1825 41.504C26.3532 41.12 26.4385 40.6453 26.4385 40.08C26.4385 39.2267 26.2572 38.592 25.8945 38.176C25.5318 37.7493 25.0518 37.536 24.4545 37.536C24.0598 37.536 23.7132 37.632 23.4145 37.824C23.1158 38.0053 22.8812 38.288 22.7105 38.672C22.5505 39.0453 22.4705 39.5147 22.4705 40.08C22.4705 40.9227 22.6518 41.5627 23.0145 42C23.3772 42.4267 23.8572 42.64 24.4545 42.64ZM32.8683 44.16C31.9829 44.16 31.3163 43.9093 30.8683 43.408C30.4203 42.896 30.1963 42.1493 30.1963 41.168V33.6C30.1963 33.2693 30.2816 33.0187 30.4523 32.848C30.6229 32.6773 30.8683 32.592 31.1883 32.592C31.5083 32.592 31.7536 32.6773 31.9243 32.848C32.1056 33.0187 32.1963 33.2693 32.1963 33.6V41.072C32.1963 41.5627 32.2976 41.9253 32.5003 42.16C32.7136 42.3947 33.0123 42.512 33.3963 42.512C33.4816 42.512 33.5616 42.512 33.6363 42.512C33.7109 42.5013 33.7856 42.4907 33.8602 42.48C34.0096 42.4587 34.1109 42.5013 34.1643 42.608C34.2176 42.704 34.2443 42.9067 34.2443 43.216C34.2443 43.4827 34.1909 43.6907 34.0843 43.84C33.9776 43.9893 33.8016 44.08 33.5563 44.112C33.4496 44.1227 33.3376 44.1333 33.2203 44.144C33.1029 44.1547 32.9856 44.16 32.8683 44.16ZM38.8955 44.16C38.0848 44.16 37.3808 43.9947 36.7835 43.664C36.1862 43.3333 35.7222 42.864 35.3915 42.256C35.0608 41.6373 34.8955 40.912 34.8955 40.08C34.8955 39.4507 34.9862 38.8907 35.1675 38.4C35.3595 37.8987 35.6315 37.472 35.9835 37.12C36.3355 36.7573 36.7568 36.4853 37.2475 36.304C37.7382 36.112 38.2875 36.016 38.8955 36.016C39.7062 36.016 40.4102 36.1813 41.0075 36.512C41.6048 36.8427 42.0688 37.312 42.3995 37.92C42.7302 38.528 42.8955 39.248 42.8955 40.08C42.8955 40.7093 42.7995 41.2747 42.6075 41.776C42.4262 42.2773 42.1595 42.7093 41.8075 43.072C41.4555 43.424 41.0342 43.696 40.5435 43.888C40.0528 44.0693 39.5035 44.16 38.8955 44.16ZM38.8955 42.64C39.2902 42.64 39.6368 42.544 39.9355 42.352C40.2342 42.16 40.4635 41.8773 40.6235 41.504C40.7942 41.12 40.8795 40.6453 40.8795 40.08C40.8795 39.2267 40.6982 38.592 40.3355 38.176C39.9728 37.7493 39.4928 37.536 38.8955 37.536C38.5008 37.536 38.1542 37.632 37.8555 37.824C37.5568 38.0053 37.3222 38.288 37.1515 38.672C36.9915 39.0453 36.9115 39.5147 36.9115 40.08C36.9115 40.9227 37.0928 41.5627 37.4555 42C37.8182 42.4267 38.2982 42.64 38.8955 42.64ZM45.6703 44.128C45.3396 44.128 45.0836 44.0427 44.9023 43.872C44.7316 43.6907 44.6463 43.4347 44.6463 43.104V37.056C44.6463 36.7253 44.7316 36.4747 44.9023 36.304C45.0729 36.1333 45.3129 36.048 45.6223 36.048C45.9316 36.048 46.1716 36.1333 46.3423 36.304C46.5129 36.4747 46.5983 36.7253 46.5983 37.056V38.064H46.4383C46.5876 37.424 46.8809 36.9387 47.3183 36.608C47.7556 36.2773 48.3369 36.08 49.0623 36.016C49.2863 35.9947 49.4623 36.0533 49.5903 36.192C49.7289 36.32 49.8089 36.5227 49.8303 36.8C49.8516 37.0667 49.7876 37.2853 49.6383 37.456C49.4996 37.616 49.2863 37.712 48.9983 37.744L48.6463 37.776C47.9956 37.84 47.5049 38.0427 47.1743 38.384C46.8436 38.7147 46.6783 39.184 46.6783 39.792V43.104C46.6783 43.4347 46.5929 43.6907 46.4223 43.872C46.2516 44.0427 46.0009 44.128 45.6703 44.128ZM54.7429 44.16C53.8575 44.16 53.0949 43.9947 52.4549 43.664C51.8149 43.3333 51.3189 42.864 50.9669 42.256C50.6255 41.648 50.4549 40.928 50.4549 40.096C50.4549 39.2853 50.6202 38.576 50.9509 37.968C51.2922 37.36 51.7562 36.8853 52.3429 36.544C52.9402 36.192 53.6175 36.016 54.3749 36.016C54.9295 36.016 55.4255 36.1067 55.8629 36.288C56.3109 36.4693 56.6895 36.7307 56.9989 37.072C57.3189 37.4133 57.5589 37.8293 57.7189 38.32C57.8895 38.8 57.9749 39.344 57.9749 39.952C57.9749 40.144 57.9055 40.2933 57.7669 40.4C57.6389 40.496 57.4522 40.544 57.2069 40.544H52.0709V39.392H56.5669L56.3109 39.632C56.3109 39.1413 56.2362 38.7307 56.0869 38.4C55.9482 38.0693 55.7402 37.8187 55.4629 37.648C55.1962 37.4667 54.8602 37.376 54.4549 37.376C54.0069 37.376 53.6229 37.4827 53.3029 37.696C52.9935 37.8987 52.7535 38.192 52.5829 38.576C52.4229 38.9493 52.3429 39.3973 52.3429 39.92V40.032C52.3429 40.9067 52.5455 41.5627 52.9509 42C53.3669 42.4267 53.9749 42.64 54.7749 42.64C55.0522 42.64 55.3615 42.608 55.7029 42.544C56.0549 42.4693 56.3855 42.3467 56.6949 42.176C56.9189 42.048 57.1162 41.9947 57.2869 42.016C57.4575 42.0267 57.5909 42.0853 57.6869 42.192C57.7935 42.2987 57.8575 42.432 57.8789 42.592C57.9002 42.7413 57.8682 42.896 57.7829 43.056C57.7082 43.216 57.5749 43.3547 57.3829 43.472C57.0095 43.7067 56.5775 43.8827 56.0869 44C55.6069 44.1067 55.1589 44.16 54.7429 44.16Z" fill="#0F1C2A"/>
</svg>
