<svg width="59" height="50" viewBox="0 0 59 50" fill="none" xmlns="http://www.w3.org/2000/svg">
<path fill-rule="evenodd" clip-rule="evenodd" d="M33.2633 16.5571C31.8341 17.7517 29.9937 18.4706 27.9853 18.4706C23.4371 18.4706 19.75 14.7835 19.75 10.2353C19.75 5.68707 23.4371 2 27.9853 2C32.5335 2 36.2206 5.68707 36.2206 10.2353C36.2206 12.0085 35.6602 13.6508 34.7068 14.9948C34.8824 15.0496 35.0477 15.1466 35.1868 15.2858L39.4054 19.5043C39.8649 19.9638 39.8649 20.7087 39.4054 21.1681C38.946 21.6276 38.2011 21.6276 37.7416 21.1681L33.5231 16.9495C33.4073 16.8338 33.3208 16.7 33.2633 16.5571ZM33.8676 10.2353C33.8676 13.484 31.234 16.1176 27.9853 16.1176C24.7366 16.1176 22.1029 13.484 22.1029 10.2353C22.1029 6.98656 24.7366 4.35294 27.9853 4.35294C31.234 4.35294 33.8676 6.98656 33.8676 10.2353Z" fill="white"/>
<path d="M4.01738 44C3.70804 44 3.46271 43.9147 3.28138 43.744C3.11071 43.5733 3.02538 43.3333 3.02538 43.024V33.696C3.02538 33.3867 3.11071 33.1467 3.28138 32.976C3.46271 32.8053 3.70804 32.72 4.01738 32.72H9.79338C10.1027 32.72 10.3427 32.7893 10.5134 32.928C10.684 33.0667 10.7694 33.264 10.7694 33.52C10.7694 33.7867 10.684 33.9947 10.5134 34.144C10.3427 34.2827 10.1027 34.352 9.79338 34.352H5.04138V37.456H9.47338C9.78271 37.456 10.0227 37.5253 10.1934 37.664C10.364 37.8027 10.4494 38.0053 10.4494 38.272C10.4494 38.528 10.364 38.7253 10.1934 38.864C10.0227 39.0027 9.78271 39.072 9.47338 39.072H5.04138V42.368H9.79338C10.1027 42.368 10.3427 42.4427 10.5134 42.592C10.684 42.7307 10.7694 42.9333 10.7694 43.2C10.7694 43.456 10.684 43.6533 10.5134 43.792C10.3427 43.9307 10.1027 44 9.79338 44H4.01738ZM19.1553 42.528C19.3473 42.72 19.4433 42.9387 19.4433 43.184C19.4433 43.4187 19.3526 43.632 19.1713 43.824C18.9899 44.0053 18.7766 44.096 18.5313 44.096C18.2646 44.096 18.0353 43.984 17.8433 43.76L15.5873 41.264L13.3313 43.76C13.1286 43.9733 12.8993 44.08 12.6433 44.08C12.4086 44.08 12.2006 43.9893 12.0193 43.808C11.8379 43.6267 11.7473 43.4187 11.7473 43.184C11.7473 42.9387 11.8433 42.72 12.0353 42.528L14.3713 39.984L12.1633 37.584C11.9713 37.392 11.8753 37.1733 11.8753 36.928C11.8753 36.6827 11.9659 36.4747 12.1473 36.304C12.3286 36.1227 12.5366 36.032 12.7713 36.032C13.0273 36.032 13.2566 36.1387 13.4593 36.352L15.5873 38.688L17.7153 36.352C17.9179 36.1387 18.1473 36.032 18.4033 36.032C18.6486 36.032 18.8566 36.1227 19.0273 36.304C19.2086 36.4747 19.2993 36.6827 19.2993 36.928C19.2993 37.1733 19.2033 37.392 19.0113 37.584L16.8033 39.984L19.1553 42.528ZM25.4829 35.984C26.1549 35.984 26.7522 36.1547 27.2749 36.496C27.8082 36.8373 28.2189 37.3227 28.5069 37.952C28.8055 38.5707 28.9549 39.2853 28.9549 40.096C28.9549 40.9067 28.8055 41.616 28.5069 42.224C28.2189 42.832 27.8135 43.3013 27.2909 43.632C26.7682 43.9627 26.1655 44.128 25.4829 44.128C24.9282 44.128 24.4322 44.0107 23.9949 43.776C23.5575 43.5413 23.2215 43.216 22.9869 42.8V46.064C22.9869 46.3413 22.8962 46.56 22.7149 46.72C22.5335 46.88 22.2935 46.96 21.9949 46.96C21.6962 46.96 21.4509 46.8747 21.2589 46.704C21.0775 46.5333 20.9869 46.3093 20.9869 46.032V36.96C20.9869 36.672 21.0722 36.4427 21.2429 36.272C21.4242 36.1013 21.6642 36.016 21.9629 36.016C22.2615 36.016 22.5015 36.1013 22.6829 36.272C22.8642 36.4427 22.9549 36.672 22.9549 36.96V37.36C23.1895 36.9227 23.5255 36.5867 23.9629 36.352C24.4109 36.1067 24.9175 35.984 25.4829 35.984ZM24.9549 42.576C25.5842 42.576 26.0749 42.3627 26.4269 41.936C26.7789 41.4987 26.9549 40.8853 26.9549 40.096C26.9549 39.2853 26.7789 38.656 26.4269 38.208C26.0749 37.76 25.5842 37.536 24.9549 37.536C24.3149 37.536 23.8189 37.7547 23.4669 38.192C23.1255 38.6293 22.9549 39.2533 22.9549 40.064C22.9549 40.864 23.1255 41.4827 23.4669 41.92C23.8189 42.3573 24.3149 42.576 24.9549 42.576ZM31.6883 44.096C31.4003 44.096 31.1603 44.016 30.9683 43.856C30.7869 43.6853 30.6963 43.4453 30.6963 43.136V33.584C30.6963 33.2747 30.7869 33.04 30.9683 32.88C31.1603 32.72 31.4003 32.64 31.6883 32.64C31.9763 32.64 32.2163 32.72 32.4083 32.88C32.6003 33.04 32.6963 33.2747 32.6963 33.584V43.136C32.6963 43.4453 32.6003 43.6853 32.4083 43.856C32.2163 44.016 31.9763 44.096 31.6883 44.096ZM38.4268 44.128C37.6268 44.128 36.9228 43.9627 36.3148 43.632C35.7174 43.3013 35.2534 42.8267 34.9228 42.208C34.5921 41.5893 34.4268 40.8693 34.4268 40.048C34.4268 39.2267 34.5921 38.512 34.9228 37.904C35.2534 37.2853 35.7174 36.8107 36.3148 36.48C36.9228 36.1493 37.6268 35.984 38.4268 35.984C39.2268 35.984 39.9254 36.1493 40.5228 36.48C41.1308 36.8107 41.5948 37.2853 41.9148 37.904C42.2454 38.512 42.4108 39.2267 42.4108 40.048C42.4108 40.8693 42.2454 41.5893 41.9148 42.208C41.5948 42.8267 41.1308 43.3013 40.5228 43.632C39.9254 43.9627 39.2268 44.128 38.4268 44.128ZM38.4108 42.576C39.0614 42.576 39.5574 42.3627 39.8988 41.936C40.2401 41.5093 40.4108 40.88 40.4108 40.048C40.4108 39.2267 40.2401 38.6027 39.8988 38.176C39.5574 37.7387 39.0668 37.52 38.4268 37.52C37.7868 37.52 37.2908 37.7387 36.9388 38.176C36.5974 38.6027 36.4268 39.2267 36.4268 40.048C36.4268 40.88 36.5974 41.5093 36.9388 41.936C37.2801 42.3627 37.7708 42.576 38.4108 42.576ZM48.5299 36.016C48.8072 35.9947 49.0259 36.0533 49.1859 36.192C49.3459 36.3307 49.4259 36.5387 49.4259 36.816C49.4259 37.104 49.3565 37.3173 49.2179 37.456C49.0792 37.5947 48.8285 37.6853 48.4659 37.728L47.9859 37.776C47.3565 37.84 46.8925 38.0533 46.5939 38.416C46.3059 38.7787 46.1619 39.232 46.1619 39.776V43.136C46.1619 43.4453 46.0659 43.6853 45.8739 43.856C45.6819 44.016 45.4419 44.096 45.1539 44.096C44.8659 44.096 44.6259 44.016 44.4339 43.856C44.2525 43.6853 44.1619 43.4453 44.1619 43.136V36.944C44.1619 36.6453 44.2525 36.416 44.4339 36.256C44.6259 36.096 44.8605 36.016 45.1379 36.016C45.4152 36.016 45.6392 36.096 45.8099 36.256C45.9805 36.4053 46.0659 36.624 46.0659 36.912V37.552C46.2685 37.0827 46.5672 36.72 46.9619 36.464C47.3672 36.208 47.8152 36.064 48.3059 36.032L48.5299 36.016ZM56.4226 41.856C56.604 41.856 56.748 41.9253 56.8546 42.064C56.972 42.2027 57.0306 42.3893 57.0306 42.624C57.0306 42.9547 56.8333 43.232 56.4386 43.456C56.076 43.6587 55.6653 43.824 55.2066 43.952C54.748 44.0693 54.3106 44.128 53.8946 44.128C52.636 44.128 51.6386 43.7653 50.9026 43.04C50.1666 42.3147 49.7986 41.3227 49.7986 40.064C49.7986 39.264 49.9586 38.5547 50.2786 37.936C50.5986 37.3173 51.0466 36.8373 51.6226 36.496C52.2093 36.1547 52.8706 35.984 53.6066 35.984C54.3106 35.984 54.924 36.1387 55.4466 36.448C55.9693 36.7573 56.3746 37.1947 56.6626 37.76C56.9506 38.3253 57.0946 38.992 57.0946 39.76C57.0946 40.2187 56.892 40.448 56.4866 40.448H51.7666C51.8306 41.184 52.0386 41.728 52.3906 42.08C52.7426 42.4213 53.2546 42.592 53.9266 42.592C54.268 42.592 54.5666 42.5493 54.8226 42.464C55.0893 42.3787 55.388 42.2613 55.7186 42.112C56.0386 41.9413 56.2733 41.856 56.4226 41.856ZM53.6546 37.392C53.1106 37.392 52.6733 37.5627 52.3426 37.904C52.0226 38.2453 51.8306 38.736 51.7666 39.376H55.3826C55.3613 38.7253 55.2013 38.2347 54.9026 37.904C54.604 37.5627 54.188 37.392 53.6546 37.392Z" fill="white"/>
</svg>
