<svg width="59" height="50" viewBox="0 0 59 50" fill="none" xmlns="http://www.w3.org/2000/svg">
<path fill-rule="evenodd" clip-rule="evenodd" d="M24.5497 4L22.3275 9H23.25H35.25H36.1724L33.9502 4H24.5497ZM20.7887 11H21.25V20C21.25 21.1046 22.1454 22 23.25 22H28.26H30.24H35.25C36.3545 22 37.25 21.1046 37.25 20V11H37.7112C38.4349 11 38.9189 10.2551 38.625 9.59386L35.5139 2.59386C35.3534 2.23273 34.9953 2 34.6001 2H23.8998C23.5046 2 23.1465 2.23273 22.986 2.59386L19.8749 9.59386C19.581 10.2551 20.0651 11 20.7887 11ZM32.2499 20H35.25V11H23.25V20H26.25C26.25 19.9967 26.25 19.9933 26.25 19.99V16.01C26.25 14.8999 27.1499 14 28.26 14H30.24C31.3501 14 32.25 14.8999 32.25 16.01V19.99C32.25 19.9933 32.25 19.9967 32.2499 20ZM28.26 20H30.24C30.2455 20 30.25 19.9955 30.25 19.99V16.01C30.25 16.0045 30.2455 16 30.24 16H28.26C28.2544 16 28.25 16.0045 28.25 16.01V19.99C28.25 19.9955 28.2544 20 28.26 20Z" fill="white"/>
<path d="M9.20756 44.128C8.8769 44.128 8.6209 44.0373 8.43956 43.856C8.2689 43.664 8.18356 43.4027 8.18356 43.072V33.648C8.18356 33.3067 8.2689 33.0453 8.43956 32.864C8.6209 32.6827 8.8769 32.592 9.20756 32.592C9.53823 32.592 9.7889 32.6827 9.95956 32.864C10.1409 33.0453 10.2316 33.3067 10.2316 33.648V37.424H16.0396V33.648C16.0396 33.3067 16.1249 33.0453 16.2956 32.864C16.4769 32.6827 16.7329 32.592 17.0636 32.592C17.3942 32.592 17.6449 32.6827 17.8156 32.864C17.9969 33.0453 18.0876 33.3067 18.0876 33.648V43.072C18.0876 43.4027 17.9969 43.664 17.8156 43.856C17.6449 44.0373 17.3942 44.128 17.0636 44.128C16.7329 44.128 16.4769 44.0373 16.2956 43.856C16.1249 43.664 16.0396 43.4027 16.0396 43.072V39.136H10.2316V43.072C10.2316 43.4027 10.1462 43.664 9.97556 43.856C9.8049 44.0373 9.5489 44.128 9.20756 44.128ZM24.0346 44.16C23.2239 44.16 22.5199 43.9947 21.9226 43.664C21.3252 43.3333 20.8612 42.864 20.5306 42.256C20.1999 41.6373 20.0346 40.912 20.0346 40.08C20.0346 39.4507 20.1252 38.8907 20.3066 38.4C20.4986 37.8987 20.7706 37.472 21.1226 37.12C21.4746 36.7573 21.8959 36.4853 22.3866 36.304C22.8772 36.112 23.4266 36.016 24.0346 36.016C24.8452 36.016 25.5492 36.1813 26.1466 36.512C26.7439 36.8427 27.2079 37.312 27.5386 37.92C27.8692 38.528 28.0346 39.248 28.0346 40.08C28.0346 40.7093 27.9386 41.2747 27.7466 41.776C27.5652 42.2773 27.2986 42.7093 26.9466 43.072C26.5946 43.424 26.1732 43.696 25.6826 43.888C25.1919 44.0693 24.6426 44.16 24.0346 44.16ZM24.0346 42.64C24.4292 42.64 24.7759 42.544 25.0746 42.352C25.3732 42.16 25.6026 41.8773 25.7626 41.504C25.9332 41.12 26.0186 40.6453 26.0186 40.08C26.0186 39.2267 25.8372 38.592 25.4746 38.176C25.1119 37.7493 24.6319 37.536 24.0346 37.536C23.6399 37.536 23.2932 37.632 22.9946 37.824C22.6959 38.0053 22.4612 38.288 22.2906 38.672C22.1306 39.0453 22.0506 39.5147 22.0506 40.08C22.0506 40.9227 22.2319 41.5627 22.5946 42C22.9572 42.4267 23.4372 42.64 24.0346 42.64ZM30.8093 44.128C30.4893 44.128 30.244 44.0427 30.0733 43.872C29.9026 43.6907 29.8173 43.4347 29.8173 43.104V37.056C29.8173 36.7253 29.9026 36.4747 30.0733 36.304C30.244 36.1333 30.484 36.048 30.7933 36.048C31.1026 36.048 31.3426 36.1333 31.5133 36.304C31.684 36.4747 31.7693 36.7253 31.7693 37.056V38.224L31.5933 37.744C31.8066 37.2107 32.1373 36.7893 32.5853 36.48C33.0333 36.1707 33.5666 36.016 34.1853 36.016C34.8146 36.016 35.332 36.1653 35.7373 36.464C36.1426 36.7627 36.4253 37.2213 36.5853 37.84H36.3613C36.5746 37.2747 36.9266 36.832 37.4173 36.512C37.908 36.1813 38.4733 36.016 39.1133 36.016C39.7106 36.016 40.2013 36.1333 40.5853 36.368C40.98 36.6027 41.2733 36.96 41.4653 37.44C41.6573 37.9093 41.7533 38.5067 41.7533 39.232V43.104C41.7533 43.4347 41.6626 43.6907 41.4813 43.872C41.3106 44.0427 41.0653 44.128 40.7453 44.128C40.4253 44.128 40.18 44.0427 40.0093 43.872C39.8386 43.6907 39.7533 43.4347 39.7533 43.104V39.312C39.7533 38.7147 39.652 38.2773 39.4493 38C39.2573 37.7227 38.9266 37.584 38.4573 37.584C37.9346 37.584 37.524 37.7707 37.2253 38.144C36.9266 38.5067 36.7773 39.0133 36.7773 39.664V43.104C36.7773 43.4347 36.692 43.6907 36.5213 43.872C36.3506 44.0427 36.1053 44.128 35.7853 44.128C35.4653 44.128 35.2146 44.0427 35.0333 43.872C34.8626 43.6907 34.7773 43.4347 34.7773 43.104V39.312C34.7773 38.7147 34.676 38.2773 34.4733 38C34.2813 37.7227 33.956 37.584 33.4973 37.584C32.9746 37.584 32.564 37.7707 32.2653 38.144C31.9666 38.5067 31.8173 39.0133 31.8173 39.664V43.104C31.8173 43.7867 31.4813 44.128 30.8093 44.128ZM47.7726 44.16C46.8872 44.16 46.1246 43.9947 45.4846 43.664C44.8446 43.3333 44.3486 42.864 43.9966 42.256C43.6552 41.648 43.4846 40.928 43.4846 40.096C43.4846 39.2853 43.6499 38.576 43.9806 37.968C44.3219 37.36 44.7859 36.8853 45.3726 36.544C45.9699 36.192 46.6472 36.016 47.4046 36.016C47.9592 36.016 48.4552 36.1067 48.8926 36.288C49.3406 36.4693 49.7192 36.7307 50.0286 37.072C50.3486 37.4133 50.5886 37.8293 50.7486 38.32C50.9192 38.8 51.0046 39.344 51.0046 39.952C51.0046 40.144 50.9352 40.2933 50.7966 40.4C50.6686 40.496 50.4819 40.544 50.2366 40.544H45.1006V39.392H49.5966L49.3406 39.632C49.3406 39.1413 49.2659 38.7307 49.1166 38.4C48.9779 38.0693 48.7699 37.8187 48.4926 37.648C48.2259 37.4667 47.8899 37.376 47.4846 37.376C47.0366 37.376 46.6526 37.4827 46.3326 37.696C46.0232 37.8987 45.7832 38.192 45.6126 38.576C45.4526 38.9493 45.3726 39.3973 45.3726 39.92V40.032C45.3726 40.9067 45.5752 41.5627 45.9806 42C46.3966 42.4267 47.0046 42.64 47.8046 42.64C48.0819 42.64 48.3912 42.608 48.7326 42.544C49.0846 42.4693 49.4152 42.3467 49.7246 42.176C49.9486 42.048 50.1459 41.9947 50.3166 42.016C50.4872 42.0267 50.6206 42.0853 50.7166 42.192C50.8232 42.2987 50.8872 42.432 50.9086 42.592C50.9299 42.7413 50.8979 42.896 50.8126 43.056C50.7379 43.216 50.6046 43.3547 50.4126 43.472C50.0392 43.7067 49.6072 43.8827 49.1166 44C48.6366 44.1067 48.1886 44.16 47.7726 44.16Z" fill="white"/>
</svg>
