<svg width="59" height="50" viewBox="0 0 59 50" fill="none" xmlns="http://www.w3.org/2000/svg">
<path fill-rule="evenodd" clip-rule="evenodd" d="M24.5497 4L22.3275 9H23.25H35.25H36.1724L33.9502 4H24.5497ZM20.7887 11H21.25V20C21.25 21.1046 22.1454 22 23.25 22H28.26H30.24H35.25C36.3545 22 37.25 21.1046 37.25 20V11H37.7112C38.4349 11 38.9189 10.2551 38.625 9.59386L35.5139 2.59386C35.3534 2.23273 34.9953 2 34.6001 2H23.8998C23.5046 2 23.1465 2.23273 22.986 2.59386L19.8749 9.59386C19.581 10.2551 20.0651 11 20.7887 11ZM32.2499 20H35.25V11H23.25V20H26.25C26.25 19.9967 26.25 19.9933 26.25 19.99V16.01C26.25 14.8999 27.1499 14 28.26 14H30.24C31.3501 14 32.25 14.8999 32.25 16.01V19.99C32.25 19.9933 32.25 19.9967 32.2499 20ZM28.26 20H30.24C30.2455 20 30.25 19.9955 30.25 19.99V16.01C30.25 16.0045 30.2455 16 30.24 16H28.26C28.2544 16 28.25 16.0045 28.25 16.01V19.99C28.25 19.9955 28.2544 20 28.26 20Z" fill="#101C2C"/>
<path d="M17.1711 32.64C17.4804 32.64 17.7257 32.736 17.9071 32.928C18.0884 33.1093 18.1791 33.3547 18.1791 33.664V43.056C18.1791 43.3653 18.0831 43.616 17.8911 43.808C17.7097 44 17.4697 44.096 17.1711 44.096C16.8617 44.096 16.6164 44 16.4351 43.808C16.2537 43.616 16.1631 43.3653 16.1631 43.056V39.104H10.3871V43.056C10.3871 43.3653 10.2911 43.616 10.0991 43.808C9.91773 44 9.6724 44.096 9.36306 44.096C9.0644 44.096 8.81906 44 8.62706 43.808C8.44573 43.616 8.35506 43.3653 8.35506 43.056V33.664C8.35506 33.3547 8.44573 33.1093 8.62706 32.928C8.8084 32.736 9.05373 32.64 9.36306 32.64C9.6724 32.64 9.91773 32.736 10.0991 32.928C10.2911 33.1093 10.3871 33.3547 10.3871 33.664V37.44H16.1631V33.664C16.1631 33.3547 16.2537 33.1093 16.4351 32.928C16.6164 32.736 16.8617 32.64 17.1711 32.64ZM24.0971 44.128C23.2971 44.128 22.5931 43.9627 21.9851 43.632C21.3877 43.3013 20.9237 42.8267 20.5931 42.208C20.2624 41.5893 20.0971 40.8693 20.0971 40.048C20.0971 39.2267 20.2624 38.512 20.5931 37.904C20.9237 37.2853 21.3877 36.8107 21.9851 36.48C22.5931 36.1493 23.2971 35.984 24.0971 35.984C24.8971 35.984 25.5957 36.1493 26.1931 36.48C26.8011 36.8107 27.2651 37.2853 27.5851 37.904C27.9157 38.512 28.0811 39.2267 28.0811 40.048C28.0811 40.8693 27.9157 41.5893 27.5851 42.208C27.2651 42.8267 26.8011 43.3013 26.1931 43.632C25.5957 43.9627 24.8971 44.128 24.0971 44.128ZM24.0811 42.576C24.7317 42.576 25.2277 42.3627 25.5691 41.936C25.9104 41.5093 26.0811 40.88 26.0811 40.048C26.0811 39.2267 25.9104 38.6027 25.5691 38.176C25.2277 37.7387 24.7371 37.52 24.0971 37.52C23.4571 37.52 22.9611 37.7387 22.6091 38.176C22.2677 38.6027 22.0971 39.2267 22.0971 40.048C22.0971 40.88 22.2677 41.5093 22.6091 41.936C22.9504 42.3627 23.4411 42.576 24.0811 42.576ZM39.1282 35.984C39.9815 35.984 40.6322 36.24 41.0802 36.752C41.5389 37.2533 41.7682 38.0693 41.7682 39.2V43.136C41.7682 43.4453 41.6722 43.6853 41.4802 43.856C41.2989 44.016 41.0589 44.096 40.7602 44.096C40.4722 44.096 40.2322 44.016 40.0402 43.856C39.8589 43.6853 39.7682 43.4453 39.7682 43.136V39.2C39.7682 38.6133 39.6615 38.1973 39.4482 37.952C39.2455 37.696 38.9309 37.568 38.5042 37.568C37.9815 37.568 37.5655 37.7493 37.2562 38.112C36.9469 38.464 36.7922 38.9493 36.7922 39.568V43.136C36.7922 43.4453 36.6962 43.6853 36.5042 43.856C36.3229 44.016 36.0882 44.096 35.8002 44.096C35.5122 44.096 35.2722 44.016 35.0802 43.856C34.8882 43.6853 34.7922 43.4453 34.7922 43.136V39.2C34.7922 38.6133 34.6855 38.1973 34.4722 37.952C34.2695 37.696 33.9549 37.568 33.5282 37.568C33.0055 37.568 32.5895 37.7493 32.2802 38.112C31.9815 38.464 31.8322 38.9493 31.8322 39.568V43.136C31.8322 43.4453 31.7362 43.6853 31.5442 43.856C31.3522 44.016 31.1122 44.096 30.8242 44.096C30.5362 44.096 30.2962 44.016 30.1042 43.856C29.9229 43.6853 29.8322 43.4453 29.8322 43.136V36.944C29.8322 36.6453 29.9282 36.416 30.1202 36.256C30.3122 36.096 30.5522 36.016 30.8402 36.016C31.1175 36.016 31.3415 36.096 31.5122 36.256C31.6935 36.4053 31.7842 36.624 31.7842 36.912V37.296C32.0295 36.8693 32.3549 36.544 32.7602 36.32C33.1762 36.096 33.6509 35.984 34.1842 35.984C35.3575 35.984 36.1415 36.4747 36.5362 37.456C36.7709 37.008 37.1175 36.6507 37.5762 36.384C38.0349 36.1173 38.5522 35.984 39.1282 35.984ZM50.0929 41.856C50.2743 41.856 50.4183 41.9253 50.5249 42.064C50.6423 42.2027 50.7009 42.3893 50.7009 42.624C50.7009 42.9547 50.5036 43.232 50.1089 43.456C49.7463 43.6587 49.3356 43.824 48.8769 43.952C48.4183 44.0693 47.9809 44.128 47.5649 44.128C46.3063 44.128 45.3089 43.7653 44.5729 43.04C43.8369 42.3147 43.4689 41.3227 43.4689 40.064C43.4689 39.264 43.6289 38.5547 43.9489 37.936C44.2689 37.3173 44.7169 36.8373 45.2929 36.496C45.8796 36.1547 46.5409 35.984 47.2769 35.984C47.9809 35.984 48.5943 36.1387 49.1169 36.448C49.6396 36.7573 50.0449 37.1947 50.3329 37.76C50.6209 38.3253 50.7649 38.992 50.7649 39.76C50.7649 40.2187 50.5623 40.448 50.1569 40.448H45.4369C45.5009 41.184 45.7089 41.728 46.0609 42.08C46.4129 42.4213 46.9249 42.592 47.5969 42.592C47.9383 42.592 48.2369 42.5493 48.4929 42.464C48.7596 42.3787 49.0583 42.2613 49.3889 42.112C49.7089 41.9413 49.9436 41.856 50.0929 41.856ZM47.3249 37.392C46.7809 37.392 46.3436 37.5627 46.0129 37.904C45.6929 38.2453 45.5009 38.736 45.4369 39.376H49.0529C49.0316 38.7253 48.8716 38.2347 48.5729 37.904C48.2743 37.5627 47.8583 37.392 47.3249 37.392Z" fill="#101C2C"/>
</svg>
