<svg width="59" height="50" viewBox="0 0 59 50" fill="none" xmlns="http://www.w3.org/2000/svg">
<path fill-rule="evenodd" clip-rule="evenodd" d="M29.75 22C35.2728 22 39.75 17.5228 39.75 12C39.75 6.47715 35.2728 2 29.75 2C24.2272 2 19.75 6.47715 19.75 12C19.75 17.5228 24.2272 22 29.75 22ZM29.75 20C31.5986 20 33.3008 19.373 34.6554 18.32C31.9332 15.6449 27.5668 15.6449 24.8446 18.32C26.1992 19.373 27.9014 20 29.75 20ZM37.75 12C37.75 13.8488 37.1229 15.5511 36.0697 16.9058C34.8086 15.6617 33.2715 14.8654 31.6571 14.517C32.9037 13.8395 33.75 12.5186 33.75 11C33.75 8.79086 31.9591 7 29.75 7C27.5409 7 25.75 8.79086 25.75 11C25.75 12.5186 26.5963 13.8395 27.8429 14.517C26.2285 14.8654 24.6914 15.6617 23.4303 16.9058C22.3771 15.5511 21.75 13.8488 21.75 12C21.75 7.58172 25.3317 4 29.75 4C34.1683 4 37.75 7.58172 37.75 12ZM31.75 11C31.75 12.1046 30.8546 13 29.75 13C28.6454 13 27.75 12.1046 27.75 11C27.75 9.89543 28.6454 9 29.75 9C30.8546 9 31.75 9.89543 31.75 11Z" fill="white"/>
<path d="M7.12006 44.128C6.7894 44.128 6.5334 44.0373 6.35206 43.856C6.1814 43.664 6.09606 43.4027 6.09606 43.072V33.76C6.09606 33.4187 6.18673 33.1627 6.36806 32.992C6.5494 32.8107 6.8054 32.72 7.13606 32.72H10.9921C12.2294 32.72 13.1841 33.0293 13.8561 33.648C14.5281 34.2667 14.8641 35.1307 14.8641 36.24C14.8641 37.3493 14.5281 38.2187 13.8561 38.848C13.1841 39.4667 12.2294 39.776 10.9921 39.776H8.14406V43.072C8.14406 43.4027 8.05873 43.664 7.88806 43.856C7.7174 44.0373 7.4614 44.128 7.12006 44.128ZM8.14406 38.16H10.6721C11.3974 38.16 11.9467 38 12.3201 37.68C12.6934 37.3493 12.8801 36.8693 12.8801 36.24C12.8801 35.6107 12.6934 35.136 12.3201 34.816C11.9467 34.496 11.3974 34.336 10.6721 34.336H8.14406V38.16ZM17.3093 44.128C16.9786 44.128 16.7226 44.0427 16.5413 43.872C16.3706 43.6907 16.2853 43.4347 16.2853 43.104V37.056C16.2853 36.7253 16.3706 36.4747 16.5413 36.304C16.712 36.1333 16.952 36.048 17.2613 36.048C17.5706 36.048 17.8106 36.1333 17.9813 36.304C18.152 36.4747 18.2373 36.7253 18.2373 37.056V38.064H18.0773C18.2266 37.424 18.52 36.9387 18.9573 36.608C19.3946 36.2773 19.976 36.08 20.7013 36.016C20.9253 35.9947 21.1013 36.0533 21.2293 36.192C21.368 36.32 21.448 36.5227 21.4693 36.8C21.4906 37.0667 21.4266 37.2853 21.2773 37.456C21.1386 37.616 20.9253 37.712 20.6373 37.744L20.2853 37.776C19.6346 37.84 19.144 38.0427 18.8133 38.384C18.4826 38.7147 18.3173 39.184 18.3173 39.792V43.104C18.3173 43.4347 18.232 43.6907 18.0613 43.872C17.8906 44.0427 17.64 44.128 17.3093 44.128ZM26.0939 44.16C25.2833 44.16 24.5793 43.9947 23.9819 43.664C23.3846 43.3333 22.9206 42.864 22.5899 42.256C22.2593 41.6373 22.0939 40.912 22.0939 40.08C22.0939 39.4507 22.1846 38.8907 22.3659 38.4C22.5579 37.8987 22.8299 37.472 23.1819 37.12C23.5339 36.7573 23.9553 36.4853 24.4459 36.304C24.9366 36.112 25.4859 36.016 26.0939 36.016C26.9046 36.016 27.6086 36.1813 28.2059 36.512C28.8033 36.8427 29.2673 37.312 29.5979 37.92C29.9286 38.528 30.0939 39.248 30.0939 40.08C30.0939 40.7093 29.9979 41.2747 29.8059 41.776C29.6246 42.2773 29.3579 42.7093 29.0059 43.072C28.6539 43.424 28.2326 43.696 27.7419 43.888C27.2513 44.0693 26.7019 44.16 26.0939 44.16ZM26.0939 42.64C26.4886 42.64 26.8353 42.544 27.1339 42.352C27.4326 42.16 27.6619 41.8773 27.8219 41.504C27.9926 41.12 28.0779 40.6453 28.0779 40.08C28.0779 39.2267 27.8966 38.592 27.5339 38.176C27.1713 37.7493 26.6913 37.536 26.0939 37.536C25.6993 37.536 25.3526 37.632 25.0539 37.824C24.7553 38.0053 24.5206 38.288 24.3499 38.672C24.1899 39.0453 24.1099 39.5147 24.1099 40.08C24.1099 40.9227 24.2913 41.5627 24.6539 42C25.0166 42.4267 25.4966 42.64 26.0939 42.64ZM33.3026 44.128C32.9826 44.128 32.7319 44.0427 32.5506 43.872C32.3799 43.6907 32.2946 43.4347 32.2946 43.104V37.68H31.5586C31.3026 37.68 31.1052 37.616 30.9666 37.488C30.8279 37.3493 30.7586 37.1627 30.7586 36.928C30.7586 36.6827 30.8279 36.496 30.9666 36.368C31.1052 36.24 31.3026 36.176 31.5586 36.176H32.8706L32.2946 36.704V36.16C32.2946 35.0613 32.5719 34.24 33.1266 33.696C33.6812 33.1413 34.4812 32.816 35.5266 32.72L36.0706 32.672C36.2839 32.6507 36.4546 32.688 36.5826 32.784C36.7106 32.8693 36.7959 32.9867 36.8386 33.136C36.8812 33.2747 36.8866 33.4187 36.8546 33.568C36.8226 33.7173 36.7532 33.8507 36.6466 33.968C36.5506 34.0747 36.4226 34.1333 36.2626 34.144L36.0386 34.16C35.4306 34.2027 34.9879 34.3573 34.7106 34.624C34.4332 34.8907 34.2946 35.296 34.2946 35.84V36.432L34.0386 36.176H35.6546C35.9106 36.176 36.1079 36.24 36.2466 36.368C36.3852 36.496 36.4546 36.6827 36.4546 36.928C36.4546 37.1627 36.3852 37.3493 36.2466 37.488C36.1079 37.616 35.9106 37.68 35.6546 37.68H34.2946V43.104C34.2946 43.7867 33.9639 44.128 33.3026 44.128ZM38.6867 44.112C38.3667 44.112 38.1214 44.016 37.9507 43.824C37.78 43.632 37.6947 43.3653 37.6947 43.024V37.152C37.6947 36.8 37.78 36.5333 37.9507 36.352C38.1214 36.16 38.3667 36.064 38.6867 36.064C39.0067 36.064 39.252 36.16 39.4227 36.352C39.604 36.5333 39.6947 36.8 39.6947 37.152V43.024C39.6947 43.3653 39.6094 43.632 39.4387 43.824C39.268 44.016 39.0174 44.112 38.6867 44.112ZM38.6867 34.576C38.3134 34.576 38.02 34.4853 37.8067 34.304C37.604 34.112 37.5027 33.8507 37.5027 33.52C37.5027 33.1787 37.604 32.9173 37.8067 32.736C38.02 32.5547 38.3134 32.464 38.6867 32.464C39.0707 32.464 39.364 32.5547 39.5667 32.736C39.7694 32.9173 39.8707 33.1787 39.8707 33.52C39.8707 33.8507 39.7694 34.112 39.5667 34.304C39.364 34.4853 39.0707 34.576 38.6867 34.576ZM44.5448 44.16C43.6595 44.16 42.9928 43.9093 42.5448 43.408C42.0968 42.896 41.8728 42.1493 41.8728 41.168V33.6C41.8728 33.2693 41.9581 33.0187 42.1288 32.848C42.2995 32.6773 42.5448 32.592 42.8648 32.592C43.1848 32.592 43.4301 32.6773 43.6008 32.848C43.7821 33.0187 43.8728 33.2693 43.8728 33.6V41.072C43.8728 41.5627 43.9741 41.9253 44.1768 42.16C44.3901 42.3947 44.6888 42.512 45.0728 42.512C45.1581 42.512 45.2381 42.512 45.3128 42.512C45.3875 42.5013 45.4621 42.4907 45.5368 42.48C45.6861 42.4587 45.7875 42.5013 45.8408 42.608C45.8941 42.704 45.9208 42.9067 45.9208 43.216C45.9208 43.4827 45.8675 43.6907 45.7608 43.84C45.6541 43.9893 45.4781 44.08 45.2328 44.112C45.1261 44.1227 45.0141 44.1333 44.8968 44.144C44.7795 44.1547 44.6621 44.16 44.5448 44.16ZM50.8601 44.16C49.9747 44.16 49.2121 43.9947 48.5721 43.664C47.9321 43.3333 47.4361 42.864 47.0841 42.256C46.7427 41.648 46.5721 40.928 46.5721 40.096C46.5721 39.2853 46.7374 38.576 47.0681 37.968C47.4094 37.36 47.8734 36.8853 48.4601 36.544C49.0574 36.192 49.7347 36.016 50.4921 36.016C51.0467 36.016 51.5427 36.1067 51.9801 36.288C52.4281 36.4693 52.8067 36.7307 53.1161 37.072C53.4361 37.4133 53.6761 37.8293 53.8361 38.32C54.0067 38.8 54.0921 39.344 54.0921 39.952C54.0921 40.144 54.0227 40.2933 53.8841 40.4C53.7561 40.496 53.5694 40.544 53.3241 40.544H48.1881V39.392H52.6841L52.4281 39.632C52.4281 39.1413 52.3534 38.7307 52.2041 38.4C52.0654 38.0693 51.8574 37.8187 51.5801 37.648C51.3134 37.4667 50.9774 37.376 50.5721 37.376C50.1241 37.376 49.7401 37.4827 49.4201 37.696C49.1107 37.8987 48.8707 38.192 48.7001 38.576C48.5401 38.9493 48.4601 39.3973 48.4601 39.92V40.032C48.4601 40.9067 48.6627 41.5627 49.0681 42C49.4841 42.4267 50.0921 42.64 50.8921 42.64C51.1694 42.64 51.4787 42.608 51.8201 42.544C52.1721 42.4693 52.5027 42.3467 52.8121 42.176C53.0361 42.048 53.2334 41.9947 53.4041 42.016C53.5747 42.0267 53.7081 42.0853 53.8041 42.192C53.9107 42.2987 53.9747 42.432 53.9961 42.592C54.0174 42.7413 53.9854 42.896 53.9001 43.056C53.8254 43.216 53.6921 43.3547 53.5001 43.472C53.1267 43.7067 52.6947 43.8827 52.2041 44C51.7241 44.1067 51.2761 44.16 50.8601 44.16Z" fill="white"/>
</svg>
