<svg width="59" height="50" viewBox="0 0 59 50" fill="none" xmlns="http://www.w3.org/2000/svg">
<path fill-rule="evenodd" clip-rule="evenodd" d="M29.75 22C35.2728 22 39.75 17.5228 39.75 12C39.75 6.47715 35.2728 2 29.75 2C24.2272 2 19.75 6.47715 19.75 12C19.75 17.5228 24.2272 22 29.75 22ZM29.75 20C31.5986 20 33.3008 19.373 34.6554 18.32C31.9332 15.6449 27.5668 15.6449 24.8446 18.32C26.1992 19.373 27.9014 20 29.75 20ZM37.75 12C37.75 13.8488 37.1229 15.5511 36.0697 16.9058C34.8086 15.6617 33.2715 14.8654 31.6571 14.517C32.9037 13.8395 33.75 12.5186 33.75 11C33.75 8.79086 31.9591 7 29.75 7C27.5409 7 25.75 8.79086 25.75 11C25.75 12.5186 26.5963 13.8395 27.8429 14.517C26.2285 14.8654 24.6914 15.6617 23.4303 16.9058C22.3771 15.5511 21.75 13.8488 21.75 12C21.75 7.58172 25.3317 4 29.75 4C34.1683 4 37.75 7.58172 37.75 12ZM31.75 11C31.75 12.1046 30.8546 13 29.75 13C28.6454 13 27.75 12.1046 27.75 11C27.75 9.89543 28.6454 9 29.75 9C30.8546 9 31.75 9.89543 31.75 11Z" fill="#696974"/>
<path d="M7.13531 44.096C6.82598 44.096 6.57531 44.0053 6.38331 43.824C6.20198 43.632 6.11131 43.376 6.11131 43.056V33.696C6.11131 33.3867 6.19665 33.1467 6.36731 32.976C6.54865 32.8053 6.79398 32.72 7.10331 32.72H11.0393C12.2446 32.72 13.1833 33.024 13.8553 33.632C14.5273 34.2293 14.8633 35.072 14.8633 36.16C14.8633 37.248 14.5273 38.096 13.8553 38.704C13.1833 39.312 12.2446 39.616 11.0393 39.616H8.17531V43.056C8.17531 43.376 8.07931 43.632 7.88731 43.824C7.70598 44.0053 7.45531 44.096 7.13531 44.096ZM10.7833 38.032C12.202 38.032 12.9113 37.4133 12.9113 36.176C12.9113 34.9387 12.202 34.32 10.7833 34.32H8.17531V38.032H10.7833ZM20.8096 36.016C21.0869 35.9947 21.3056 36.0533 21.4656 36.192C21.6256 36.3307 21.7056 36.5387 21.7056 36.816C21.7056 37.104 21.6362 37.3173 21.4976 37.456C21.3589 37.5947 21.1082 37.6853 20.7456 37.728L20.2656 37.776C19.6362 37.84 19.1722 38.0533 18.8736 38.416C18.5856 38.7787 18.4416 39.232 18.4416 39.776V43.136C18.4416 43.4453 18.3456 43.6853 18.1536 43.856C17.9616 44.016 17.7216 44.096 17.4336 44.096C17.1456 44.096 16.9056 44.016 16.7136 43.856C16.5322 43.6853 16.4416 43.4453 16.4416 43.136V36.944C16.4416 36.6453 16.5322 36.416 16.7136 36.256C16.9056 36.096 17.1402 36.016 17.4176 36.016C17.6949 36.016 17.9189 36.096 18.0896 36.256C18.2602 36.4053 18.3456 36.624 18.3456 36.912V37.552C18.5482 37.0827 18.8469 36.72 19.2416 36.464C19.6469 36.208 20.0949 36.064 20.5856 36.032L20.8096 36.016ZM26.0783 44.128C25.2783 44.128 24.5743 43.9627 23.9663 43.632C23.369 43.3013 22.905 42.8267 22.5743 42.208C22.2436 41.5893 22.0783 40.8693 22.0783 40.048C22.0783 39.2267 22.2436 38.512 22.5743 37.904C22.905 37.2853 23.369 36.8107 23.9663 36.48C24.5743 36.1493 25.2783 35.984 26.0783 35.984C26.8783 35.984 27.577 36.1493 28.1743 36.48C28.7823 36.8107 29.2463 37.2853 29.5663 37.904C29.897 38.512 30.0623 39.2267 30.0623 40.048C30.0623 40.8693 29.897 41.5893 29.5663 42.208C29.2463 42.8267 28.7823 43.3013 28.1743 43.632C27.577 43.9627 26.8783 44.128 26.0783 44.128ZM26.0623 42.576C26.713 42.576 27.209 42.3627 27.5503 41.936C27.8916 41.5093 28.0623 40.88 28.0623 40.048C28.0623 39.2267 27.8916 38.6027 27.5503 38.176C27.209 37.7387 26.7183 37.52 26.0783 37.52C25.4383 37.52 24.9423 37.7387 24.5903 38.176C24.249 38.6027 24.0783 39.2267 24.0783 40.048C24.0783 40.88 24.249 41.5093 24.5903 41.936C24.9316 42.3627 25.4223 42.576 26.0623 42.576ZM35.7186 34.208C35.2279 34.24 34.8706 34.3893 34.6466 34.656C34.4226 34.9227 34.3106 35.3067 34.3106 35.808V36.176H35.6706C36.2679 36.176 36.5666 36.4267 36.5666 36.928C36.5666 37.4293 36.2679 37.68 35.6706 37.68H34.3106V43.136C34.3106 43.4453 34.2146 43.68 34.0226 43.84C33.8412 44 33.6066 44.08 33.3186 44.08C33.0306 44.08 32.7906 44 32.5986 43.84C32.4066 43.68 32.3106 43.4453 32.3106 43.136V37.68H31.5106C30.9132 37.68 30.6146 37.4293 30.6146 36.928C30.6146 36.4267 30.9132 36.176 31.5106 36.176H32.3106V36.064C32.3106 35.0613 32.5719 34.2773 33.0946 33.712C33.6279 33.136 34.3746 32.8107 35.3346 32.736L35.7506 32.704C36.1772 32.672 36.4759 32.72 36.6466 32.848C36.8279 32.9653 36.9186 33.152 36.9186 33.408C36.9186 33.8667 36.6572 34.1227 36.1346 34.176L35.7186 34.208ZM39.8117 44.096C39.5237 44.096 39.2837 44.016 39.0917 43.856C38.9104 43.6853 38.8197 43.4453 38.8197 43.136V36.96C38.8197 36.6507 38.9104 36.416 39.0917 36.256C39.2837 36.096 39.5237 36.016 39.8117 36.016C40.0997 36.016 40.3397 36.096 40.5317 36.256C40.7237 36.416 40.8197 36.6507 40.8197 36.96V43.136C40.8197 43.4453 40.7237 43.6853 40.5317 43.856C40.3397 44.016 40.0997 44.096 39.8117 44.096ZM39.8117 34.592C39.449 34.592 39.161 34.496 38.9477 34.304C38.7344 34.1013 38.6277 33.84 38.6277 33.52C38.6277 33.2 38.7344 32.944 38.9477 32.752C39.161 32.56 39.449 32.464 39.8117 32.464C40.1637 32.464 40.4464 32.56 40.6597 32.752C40.8837 32.944 40.9957 33.2 40.9957 33.52C40.9957 33.84 40.889 34.1013 40.6757 34.304C40.4624 34.496 40.1744 34.592 39.8117 34.592ZM43.9742 44.096C43.6862 44.096 43.4462 44.016 43.2542 43.856C43.0729 43.6853 42.9822 43.4453 42.9822 43.136V33.584C42.9822 33.2747 43.0729 33.04 43.2542 32.88C43.4462 32.72 43.6862 32.64 43.9742 32.64C44.2622 32.64 44.5022 32.72 44.6942 32.88C44.8862 33.04 44.9822 33.2747 44.9822 33.584V43.136C44.9822 43.4453 44.8862 43.6853 44.6942 43.856C44.5022 44.016 44.2622 44.096 43.9742 44.096ZM53.3367 41.856C53.518 41.856 53.662 41.9253 53.7687 42.064C53.886 42.2027 53.9447 42.3893 53.9447 42.624C53.9447 42.9547 53.7474 43.232 53.3527 43.456C52.99 43.6587 52.5794 43.824 52.1207 43.952C51.662 44.0693 51.2247 44.128 50.8087 44.128C49.55 44.128 48.5527 43.7653 47.8167 43.04C47.0807 42.3147 46.7127 41.3227 46.7127 40.064C46.7127 39.264 46.8727 38.5547 47.1927 37.936C47.5127 37.3173 47.9607 36.8373 48.5367 36.496C49.1234 36.1547 49.7847 35.984 50.5207 35.984C51.2247 35.984 51.838 36.1387 52.3607 36.448C52.8834 36.7573 53.2887 37.1947 53.5767 37.76C53.8647 38.3253 54.0087 38.992 54.0087 39.76C54.0087 40.2187 53.806 40.448 53.4007 40.448H48.6807C48.7447 41.184 48.9527 41.728 49.3047 42.08C49.6567 42.4213 50.1687 42.592 50.8407 42.592C51.182 42.592 51.4807 42.5493 51.7367 42.464C52.0034 42.3787 52.302 42.2613 52.6327 42.112C52.9527 41.9413 53.1874 41.856 53.3367 41.856ZM50.5687 37.392C50.0247 37.392 49.5874 37.5627 49.2567 37.904C48.9367 38.2453 48.7447 38.736 48.6807 39.376H52.2967C52.2754 38.7253 52.1154 38.2347 51.8167 37.904C51.518 37.5627 51.102 37.392 50.5687 37.392Z" fill="#696974"/>
</svg>
