<svg width="44" height="44" viewBox="0 0 44 44" fill="none" xmlns="http://www.w3.org/2000/svg">
<rect width="44" height="44" rx="10" fill="#E9F0F7"/>
<path d="M29.0349 17.5495C28.8803 17.3735 28.7085 17.214 28.5221 17.0733C28.5986 16.4643 28.5457 15.8458 28.3669 15.2593C28.1882 14.6728 27.8876 14.1321 27.4857 13.6735C26.5152 12.5629 24.861 12 22.5686 12H17.0055C16.6036 12.0011 16.2151 12.1472 15.9095 12.4123C15.604 12.6774 15.4011 13.0442 15.3373 13.4471L13.0187 28.3618C12.9859 28.5617 12.9964 28.7665 13.0495 28.9619C13.1026 29.1572 13.1971 29.3385 13.3263 29.493C13.4554 29.6475 13.6162 29.7715 13.7975 29.8564C13.9787 29.9413 14.176 29.9851 14.3756 29.9847H16.7607L16.6872 30.4579C16.6576 30.6482 16.6689 30.8428 16.7204 31.0283C16.7719 31.2138 16.8623 31.3857 16.9856 31.5323C17.1088 31.6789 17.2618 31.7966 17.4342 31.8773C17.6065 31.958 17.794 31.9999 17.9838 32H20.8795C21.2546 32.003 21.6185 31.8701 21.9058 31.6253C22.1931 31.3804 22.385 31.0395 22.4471 30.6638L23.0207 26.9991L23.0303 26.9494H23.2978C26.9078 26.9494 29.1626 25.1374 29.8201 21.7106C30.0206 21.0031 30.0541 20.2577 29.9176 19.5347C29.7812 18.8117 29.4788 18.1316 29.0349 17.5495ZM17.7591 23.5492L17.1195 27.6721L17.0422 28.1665H14.8617L17.092 13.8182H22.5686C24.3015 13.8182 25.5386 14.1857 26.1427 14.8764C26.4279 15.2131 26.6268 15.6161 26.7217 16.0495C26.8167 16.483 26.8047 16.9336 26.687 17.3613L26.6703 17.4633C26.6594 17.5328 26.6496 17.6007 26.6315 17.6871C26.4588 18.9861 25.8195 20.1745 24.8363 21.024C23.7326 21.8034 22.4024 22.1823 21.0605 22.0994H19.4281C19.0251 22.0981 18.6349 22.2436 18.3286 22.5097C18.0223 22.7757 17.8202 23.1446 17.7591 23.5492ZM28.0627 21.3625C27.5696 23.9336 26.0553 25.1312 23.2978 25.1312H22.865C22.4895 25.1282 22.1253 25.2614 21.8379 25.5069C21.5505 25.7523 21.3589 26.0938 21.2974 26.47L20.716 30.1738L18.5425 30.1818L18.9706 27.4237L19.5177 23.9211H21.057C21.1973 23.9211 21.3214 23.8997 21.4581 23.8948C21.7794 23.8836 22.0997 23.871 22.4006 23.8331C22.5843 23.8099 22.753 23.7675 22.9291 23.7343C23.1731 23.6885 23.4172 23.6433 23.6463 23.5786C23.8167 23.5304 23.9758 23.4684 24.1379 23.4099C24.3521 23.3327 24.5629 23.2517 24.7624 23.1565C24.9128 23.0846 25.0561 23.0047 25.198 22.9227C25.3869 22.814 25.5699 22.6951 25.7462 22.5665C25.8736 22.4733 25.9986 22.3776 26.1178 22.2747C26.2867 22.1269 26.4472 21.9694 26.5985 21.803C26.6997 21.6934 26.8032 21.587 26.8969 21.4691C27.0523 21.2681 27.1958 21.0578 27.3266 20.8395C27.3951 20.7284 27.471 20.6256 27.534 20.5087C27.7154 20.1717 27.8712 19.8213 28.0002 19.4603C28.008 19.4386 28.0191 19.4203 28.0267 19.3985C28.0302 19.3883 28.0355 19.3798 28.0391 19.3695C28.2165 20.0206 28.2246 20.7073 28.0627 21.3625Z" fill="#0F1C2A"/>
</svg>
