<svg width="349" height="319" viewBox="0 0 349 319" fill="none" xmlns="http://www.w3.org/2000/svg">
<g clip-path="url(#clip0_683_70755)">
<path d="M113.832 117.334L196.539 121.879L212.489 0.194336H122.108L113.832 117.334Z" fill="#D9F6E5"/>
<path d="M106.472 116.933L114.717 0.194336H0.20166L4.53565 111.33L106.472 116.933Z" fill="#D9F6E5"/>
<path d="M105.94 124.42L4.82666 118.864L8.78817 220.414H99.1617L105.94 124.42Z" fill="#D9F6E5"/>
<path d="M113.304 124.825L106.553 220.414H183.622L195.557 129.343L113.304 124.825Z" fill="#D9F6E5"/>
</g>
<g clip-path="url(#clip1_683_70755)">
<path d="M232.632 127.795H142.464V171.098H232.632V127.795Z" fill="#F6C949"/>
<path d="M232.835 171.299H142.263V127.594H232.835V171.299ZM142.667 170.898H232.431V127.996H142.667V170.898Z" fill="#171725"/>
<path d="M233.961 117.864H151.953V132.214H233.961V117.864Z" fill="#F6C949"/>
<path d="M234.164 132.411H151.751V117.66H234.164V132.411ZM152.155 132.01H233.76V118.061H152.155V132.01Z" fill="#171725"/>
<path d="M135.925 301.209L125.563 318H167.436L143.628 303.955L140.865 300.892L135.925 301.209Z" fill="white"/>
<path d="M108.247 282.568L88.4292 282.897L110.913 318L110.056 290.504L111.171 286.542L108.247 282.568Z" fill="white"/>
<path d="M159.595 303.621H126.278V153.489L154.865 145.629L159.595 303.621Z" fill="#153CB7"/>
<path d="M159.596 303.823H126.279C126.166 303.823 126.077 303.735 126.077 303.623V153.49C126.077 153.402 126.137 153.321 126.226 153.297L154.813 145.438C154.874 145.422 154.938 145.434 154.987 145.47C155.035 145.506 155.068 145.562 155.068 145.627L159.798 303.619C159.798 303.671 159.778 303.727 159.741 303.763C159.701 303.803 159.648 303.823 159.596 303.823ZM126.481 303.422H159.39L154.672 145.891L126.481 153.643V303.422Z" fill="#153CB7"/>
<path d="M154.865 145.629C163.246 177.276 177.15 224.039 175.211 232.794C172.614 242.732 141.446 274.387 120.566 298.222L95.6304 276.86C112.216 256.272 135.811 229.976 135.811 223.152C135.661 212.768 112.071 190.361 112.071 171.102C112.22 158.615 115.521 153.601 119.099 145.432L119.968 142.855L152.138 142.96L154.865 145.629Z" fill="#1C48EE"/>
<path d="M120.563 298.424C120.514 298.424 120.47 298.408 120.43 298.375L95.4982 277.009C95.4174 276.936 95.4053 276.816 95.474 276.732C99.3599 271.907 103.698 266.689 107.891 261.643C121.516 245.25 135.61 228.302 135.61 223.148C135.549 218.841 131.36 212.379 126.509 204.901C119.646 194.316 111.87 182.318 111.87 171.099C111.995 160.457 114.463 155.095 117.315 148.881C117.832 147.753 118.369 146.585 118.911 145.349L119.771 142.788C119.799 142.707 119.876 142.651 119.961 142.651L152.131 142.755C152.184 142.755 152.236 142.776 152.272 142.812L154.999 145.489C155.023 145.513 155.043 145.545 155.052 145.581C156.752 152 158.647 158.924 160.654 166.258C168.297 194.175 176.957 225.814 175.398 232.838C173.471 240.2 155.811 259.584 138.732 278.329C132.588 285.073 126.234 292.045 120.708 298.355C120.676 298.399 120.619 298.424 120.563 298.424ZM95.9102 276.832L120.543 297.938C126.04 291.664 132.342 284.748 138.437 278.056C155.484 259.347 173.112 239.999 175.01 232.738C176.545 225.814 167.897 194.227 160.27 166.354C158.267 159.04 156.376 152.132 154.68 145.73L152.05 143.149L120.11 143.049L119.286 145.489C118.737 146.745 118.2 147.918 117.679 149.045C114.726 155.472 112.395 160.546 112.27 171.099C112.27 182.197 120.013 194.139 126.844 204.68C131.728 212.21 135.945 218.717 136.01 223.144C136.01 228.447 122.502 244.696 108.198 261.9C104.054 266.893 99.7638 272.051 95.9102 276.832Z" fill="#1C48EE"/>
<path d="M112.121 172.825V172.423C116.289 172.423 120.369 170.834 123.035 168.164C125.014 166.185 126.053 163.773 126.04 161.188L126.073 156.363H114.468V155.962H126.481L126.444 161.188C126.461 163.881 125.378 166.394 123.322 168.449C120.579 171.191 116.39 172.825 112.121 172.825Z" fill="#171725"/>
<path d="M115.61 157.551H114.803C114.689 157.551 114.601 157.463 114.601 157.35C114.601 157.238 114.689 157.15 114.803 157.15H115.61C115.724 157.15 115.812 157.238 115.812 157.35C115.812 157.463 115.724 157.551 115.61 157.551Z" fill="#171725"/>
<path d="M122.393 157.551H120.696C120.583 157.551 120.494 157.463 120.494 157.35C120.494 157.238 120.583 157.15 120.696 157.15H122.393C122.506 157.15 122.595 157.238 122.595 157.35C122.595 157.463 122.506 157.551 122.393 157.551ZM119.004 157.551H117.307C117.194 157.551 117.105 157.463 117.105 157.35C117.105 157.238 117.194 157.15 117.307 157.15H119.004C119.117 157.15 119.205 157.238 119.205 157.35C119.205 157.463 119.113 157.551 119.004 157.551Z" fill="#171725"/>
<path d="M124.885 158.358H124.881C124.768 158.354 124.683 158.262 124.683 158.153C124.687 157.957 124.691 157.756 124.691 157.555H124.085C123.972 157.555 123.883 157.467 123.883 157.354C123.883 157.242 123.972 157.154 124.085 157.154H124.893C125.006 157.154 125.095 157.242 125.095 157.354C125.095 157.627 125.091 157.896 125.087 158.165C125.083 158.27 124.994 158.358 124.885 158.358Z" fill="#171725"/>
<path d="M115.821 170.862C115.732 170.862 115.651 170.806 115.627 170.718C115.595 170.609 115.655 170.501 115.764 170.469C116.322 170.308 116.855 170.128 117.352 169.939C117.457 169.899 117.574 169.951 117.614 170.056C117.655 170.16 117.602 170.276 117.497 170.316C116.988 170.513 116.447 170.694 115.877 170.858C115.857 170.858 115.841 170.862 115.821 170.862ZM118.967 169.634C118.895 169.634 118.826 169.594 118.79 169.526C118.737 169.425 118.778 169.305 118.875 169.257C119.384 168.996 119.86 168.703 120.292 168.394C120.381 168.33 120.511 168.35 120.575 168.442C120.64 168.53 120.62 168.659 120.527 168.723C120.078 169.044 119.585 169.341 119.06 169.614C119.028 169.626 119 169.634 118.967 169.634ZM121.698 167.671C121.646 167.671 121.597 167.651 121.557 167.611C121.476 167.535 121.476 167.406 121.557 167.326C121.945 166.937 122.3 166.511 122.611 166.062C122.676 165.969 122.801 165.949 122.89 166.009C122.983 166.074 123.007 166.198 122.942 166.286C122.619 166.756 122.247 167.202 121.844 167.607C121.799 167.651 121.751 167.671 121.698 167.671ZM123.605 164.918C123.576 164.918 123.548 164.914 123.52 164.898C123.419 164.849 123.374 164.733 123.419 164.633C123.641 164.151 123.835 163.629 123.997 163.083C124.029 162.979 124.138 162.915 124.247 162.947C124.356 162.979 124.417 163.091 124.384 163.196C124.219 163.762 124.017 164.299 123.786 164.797C123.754 164.873 123.681 164.918 123.605 164.918ZM124.574 161.706C124.562 161.706 124.55 161.706 124.538 161.702C124.429 161.682 124.356 161.578 124.372 161.47C124.465 160.952 124.538 160.398 124.586 159.82C124.594 159.707 124.695 159.627 124.804 159.639C124.918 159.647 124.998 159.748 124.986 159.856C124.934 160.446 124.861 161.012 124.768 161.542C124.756 161.638 124.671 161.706 124.574 161.706Z" fill="#171725"/>
<path d="M113.373 171.44C113.276 171.44 113.195 171.372 113.175 171.275C113.155 171.167 113.227 171.062 113.336 171.038C113.603 170.986 113.866 170.934 114.124 170.878C114.233 170.854 114.342 170.922 114.366 171.03C114.391 171.139 114.322 171.247 114.213 171.271C113.954 171.327 113.688 171.384 113.417 171.436C113.401 171.44 113.389 171.44 113.373 171.44Z" fill="#171725"/>
<path d="M138.626 72.7507L144.798 74.9986L142.649 78.3664L137.701 75.9218L138.626 72.7507Z" fill="white"/>
<path d="M142.651 78.5674C142.622 78.5674 142.59 78.5594 142.562 78.5473L137.613 76.0988C137.525 76.0546 137.484 75.9583 137.508 75.8619L138.433 72.6949C138.45 72.6427 138.486 72.5985 138.534 72.5704C138.583 72.5464 138.643 72.5423 138.696 72.5624L144.868 74.8103C144.925 74.8303 144.969 74.8785 144.989 74.9347C145.01 74.9909 145.002 75.0551 144.969 75.1073L142.82 78.4751C142.784 78.5353 142.715 78.5674 142.651 78.5674ZM137.941 75.8178L142.574 78.1098L144.493 75.1073L138.761 73.02L137.941 75.8178Z" fill="#171725"/>
<path d="M150.338 46.3588L153.189 66.6577L149.453 66.9507V69.5559C139.419 71.3822 133.542 68.5122 130.997 63.8078C124.784 46.5073 135.747 43.3643 150.338 46.3588Z" fill="#171725"/>
<path d="M140.581 77.9326L130.345 74.9783L131.662 63.6667H140.867L140.581 77.9326Z" fill="#EC5E48"/>
<path d="M140.78 78.1979L130.128 75.1232L131.485 63.4705H141.079L140.78 78.1979ZM130.568 74.8302L140.388 77.6641L140.663 63.8678H131.841L130.568 74.8302Z" fill="#EC5E48"/>
<path d="M131.78 65.02C133.105 68.0145 137.04 68.8936 140.711 69.0943C140.711 69.0943 141.814 66.1439 141.624 66.0837C141.439 66.0235 131.78 65.02 131.78 65.02Z" fill="#171725"/>
<path d="M138.255 66.6571C131.582 66.6571 126.173 61.2823 126.173 54.6511V46.6191L150.337 46.3582V54.6511C150.337 61.2823 144.928 66.6571 138.255 66.6571Z" fill="#EC5E48"/>
<path d="M138.256 66.8583C131.481 66.8583 125.972 61.3832 125.972 54.6516V46.4229L150.539 46.158V54.6516C150.539 61.3832 145.03 66.8583 138.256 66.8583ZM126.376 46.8203V54.6516C126.376 61.1624 131.704 66.4569 138.256 66.4569C144.808 66.4569 150.136 61.1624 150.136 54.6516V46.5634L126.376 46.8203Z" fill="#EC5E48"/>
<path d="M138.489 35.3723H136.643C129.053 35.3723 122.897 41.4897 122.897 49.0321L119.576 68.4037L127.421 69.5598L127.542 59.3039L128.144 69.9532H130.834L129.218 54.4349C128.697 50.7741 140.189 50.3165 141.854 46.6276L143.429 47.8319C144.75 48.3898 148.204 48.4621 150.551 47.8278V47.1455C150.538 40.6387 145.033 35.3723 138.489 35.3723Z" fill="#171725"/>
<path d="M126.032 59.8936C128.226 59.2477 129.362 56.5649 128.569 53.9015C127.775 51.2381 125.353 49.6027 123.159 50.2486C120.964 50.8946 119.828 53.5773 120.622 56.2407C121.415 58.9041 123.837 60.5396 126.032 59.8936Z" fill="#EC5E48"/>
<path d="M125.051 60.2354C124.247 60.2354 123.439 59.9785 122.692 59.4727C121.629 58.7582 120.829 57.6303 120.429 56.2976C119.605 53.5319 120.805 50.7342 123.104 50.0558C125.402 49.3774 127.943 51.0794 128.767 53.845C129.163 55.1777 129.11 56.5585 128.609 57.7306C128.104 58.9188 127.212 59.7537 126.089 60.0828C125.753 60.1832 125.402 60.2354 125.051 60.2354ZM124.142 50.3087C123.835 50.3087 123.524 50.3528 123.221 50.4411C121.136 51.0553 120.058 53.6323 120.817 56.1852C121.189 57.4296 121.932 58.4812 122.918 59.1435C123.891 59.7978 124.978 59.9985 125.98 59.7015C126.981 59.4085 127.785 58.6498 128.242 57.5781C128.702 56.4903 128.755 55.2058 128.383 53.9614C127.733 51.7778 125.947 50.3087 124.142 50.3087Z" fill="#EC5E48"/>
<path d="M122.857 55.2699C122.845 55.2699 122.829 55.2699 122.817 55.2659C122.708 55.2418 122.639 55.1374 122.663 55.0291C122.986 53.5238 124.307 52.424 125.062 52.0828C125.163 52.0386 125.285 52.0828 125.329 52.1831C125.374 52.2835 125.329 52.4039 125.228 52.448C124.541 52.7571 123.346 53.7526 123.055 55.1134C123.035 55.2057 122.95 55.2699 122.857 55.2699Z" fill="#171725"/>
<path d="M125.656 56.1539C125.6 56.1539 125.543 56.1298 125.503 56.0856L123.511 53.8008C123.439 53.7165 123.447 53.592 123.532 53.5157C123.616 53.4434 123.742 53.4515 123.818 53.5358L125.81 55.8206C125.883 55.9049 125.874 56.0294 125.79 56.1057C125.753 56.1378 125.705 56.1539 125.656 56.1539Z" fill="#171725"/>
<path d="M128.141 69.9492L126.573 47.9282H128.141L130.831 69.9492H128.141Z" fill="#171725"/>
<path d="M138.797 55.1774C139.35 55.1774 139.798 54.083 139.798 52.7329C139.798 51.3828 139.35 50.2883 138.797 50.2883C138.243 50.2883 137.795 51.3828 137.795 52.7329C137.795 54.083 138.243 55.1774 138.797 55.1774Z" fill="#171725"/>
<path d="M146.973 54.2102C147.43 54.2102 147.801 53.3332 147.801 52.2513C147.801 51.1695 147.43 50.2925 146.973 50.2925C146.515 50.2925 146.145 51.1695 146.145 52.2513C146.145 53.3332 146.515 54.2102 146.973 54.2102Z" fill="#171725"/>
<path d="M119.019 145.629H154.861L156.368 104.345C156.767 89.4367 144.419 76.1061 132.365 73.7539C124.723 70.0088 111.914 86.374 110.084 101.993C107.826 121.244 111.38 138.89 119.019 145.629Z" fill="white"/>
<path d="M155.06 145.83H118.947L118.891 145.778C111.224 139.018 107.609 121.413 109.891 101.965C110.541 96.4055 112.63 90.4125 115.764 85.0859C118.749 80.0202 122.425 76.0504 125.847 74.1999C128.29 72.8793 130.569 72.6545 132.435 73.5576C144.19 75.8657 156.987 89.0719 156.574 104.345L155.06 145.83ZM119.097 145.429H154.668L156.167 104.337C156.57 89.2525 143.927 76.2149 132.326 73.951L132.277 73.935C130.528 73.08 128.371 73.2927 126.036 74.5571C118.034 78.8843 111.43 92.251 110.287 102.017C108.025 121.288 111.567 138.713 119.097 145.429Z" fill="#171725"/>
<path d="M130.252 70.2898L126.338 74.1393L138.141 84.3108C138.161 84.3269 138.186 84.3188 138.198 84.2988L142.459 76.367L130.252 70.2898Z" fill="white"/>
<path d="M138.167 84.524C138.114 84.524 138.061 84.5039 138.017 84.4718L126.21 74.2922C126.169 74.2561 126.141 74.2039 126.141 74.1477C126.141 74.0915 126.161 74.0394 126.202 73.9992L130.116 70.1498C130.177 70.0896 130.269 70.0735 130.35 70.1136L142.561 76.1949C142.61 76.219 142.646 76.2631 142.662 76.3153C142.679 76.3675 142.675 76.4237 142.646 76.4719L138.385 84.4036C138.356 84.4558 138.284 84.5119 138.223 84.524C138.203 84.52 138.183 84.524 138.167 84.524ZM138.025 84.2029C138.025 84.2069 138.021 84.2069 138.021 84.2109L138.025 84.2029ZM126.638 74.1317L138.122 84.0262L142.19 76.4558L130.294 70.5351L126.638 74.1317Z" fill="#171725"/>
<path d="M186.085 146.44L198.046 155.383C200.146 156.868 201.657 156.535 203.584 157.374C204.888 157.872 207.7 162.998 210.826 165.695C210.653 166.651 210.156 167.305 208.532 166.907C206.714 166.366 204.472 164.796 202.497 162.207C202.222 161.89 201.584 162.127 201.867 162.789C203.147 165.659 204.662 170.03 204.105 171.178C202.78 172.607 201.633 173.707 199.783 173.671C198.324 174.699 196.648 175.172 194.62 174.739C193.311 175.305 192.213 175.754 190.75 174.739C187.975 172.254 186.901 167.06 187.236 161.629L178.491 154.432L186.085 146.44Z" fill="#EC5E48"/>
<path d="M192.493 175.546C191.919 175.546 191.309 175.374 190.635 174.904C188.021 172.564 186.68 167.647 187.028 161.722L178.193 154.457L186.062 146.172L198.164 155.223C199.408 156.102 200.422 156.323 201.497 156.552C202.179 156.7 202.89 156.853 203.658 157.186C204.328 157.439 205.29 158.732 206.514 160.365C207.77 162.051 209.337 164.146 210.953 165.539L211.038 165.616L211.018 165.728C210.905 166.346 210.678 166.744 210.307 166.984C209.879 167.257 209.281 167.297 208.473 167.101C206.409 166.483 204.171 164.745 202.325 162.328C202.26 162.252 202.143 162.252 202.074 162.296C201.969 162.36 201.957 162.517 202.042 162.709C203.1 165.078 204.93 169.919 204.276 171.263L204.244 171.311C202.903 172.761 201.727 173.872 199.861 173.872C199.853 173.872 199.845 173.872 199.837 173.872C198.229 174.988 196.528 175.338 194.634 174.948C193.931 175.257 193.24 175.546 192.493 175.546ZM178.787 154.42L187.448 161.545L187.44 161.646C187.08 167.494 188.369 172.335 190.885 174.591C192.259 175.542 193.264 175.109 194.541 174.555L194.602 174.531L194.666 174.543C196.488 174.932 198.128 174.595 199.667 173.507L199.719 173.467H199.788C201.533 173.503 202.608 172.492 203.933 171.063C204.365 170.059 203.137 166.125 201.679 162.866C201.481 162.4 201.646 162.087 201.864 161.951C202.115 161.798 202.45 161.846 202.644 162.067C204.446 164.427 206.611 166.117 208.586 166.707C209.269 166.876 209.766 166.856 210.093 166.643C210.343 166.483 210.505 166.202 210.602 165.764C208.986 164.343 207.439 162.272 206.191 160.602C205.056 159.085 204.074 157.772 203.508 157.555C202.765 157.234 202.079 157.086 201.412 156.941C200.346 156.712 199.239 156.472 197.926 155.54L186.107 146.701L178.787 154.42Z" fill="#EC5E48"/>
<path d="M194.622 174.94C194.549 174.94 194.48 174.9 194.444 174.832C193.567 173.182 192.622 170.878 192.606 169.369C192.606 169.256 192.695 169.168 192.804 169.164C192.913 169.16 193.006 169.252 193.01 169.361C193.026 170.802 193.987 173.106 194.803 174.639C194.856 174.735 194.82 174.86 194.719 174.912C194.686 174.932 194.654 174.94 194.622 174.94Z" fill="#171725"/>
<path d="M199.784 173.873C199.736 173.873 199.687 173.857 199.651 173.82C198.665 172.945 197.364 168.915 197.308 168.743C197.276 168.638 197.332 168.526 197.441 168.49C197.546 168.454 197.659 168.514 197.696 168.618C197.708 168.658 199.017 172.713 199.921 173.515C200.006 173.588 200.01 173.716 199.938 173.8C199.893 173.848 199.841 173.873 199.784 173.873Z" fill="#171725"/>
<path d="M192.399 140.828L176.189 160.758C150.345 143.197 127.138 125.262 124.125 103.98C122.452 87.7709 139.737 83.2029 144.799 92.2064C153.815 108.411 172.586 124.339 192.399 140.828Z" fill="white"/>
<path d="M176.23 161.027L176.077 160.923C151.392 144.148 127.03 125.937 123.924 104.008C123.5 99.9098 124.267 96.2169 126.141 93.3107C127.777 90.7779 130.233 88.8953 133.057 88.0082C137.945 86.4749 142.731 88.1206 144.973 92.1065C154.284 108.841 174.602 125.752 192.525 140.672L192.679 140.801L176.23 161.027ZM136.652 87.8436C135.525 87.8436 134.358 88.0203 133.178 88.3895C128.504 89.8547 123.378 94.812 124.324 103.96C127.402 125.676 151.59 143.791 176.15 160.486L192.117 140.853C174.203 125.941 153.941 109.054 144.622 92.3032C143.014 89.4452 140.025 87.8436 136.652 87.8436Z" fill="#171725"/>
</g>
<path d="M3.34521 318H349" stroke="white"/>
<defs>
<clipPath id="clip0_683_70755">
<rect width="212.711" height="220.609" fill="white"/>
</clipPath>
<clipPath id="clip1_683_70755">
<rect width="148.897" height="282.628" fill="white" transform="translate(88.4292 35.3723)"/>
</clipPath>
</defs>
</svg>
