<svg width="349" height="319" viewBox="0 0 349 319" fill="none" xmlns="http://www.w3.org/2000/svg">
<g clip-path="url(#clip0_595_5026)">
<path d="M113.832 117.334L196.538 121.879L212.489 0.194336H122.108L113.832 117.334Z" fill="#2ECC71" fill-opacity="0.18"/>
<path d="M196.706 122.086L113.626 117.521L113.642 117.323L121.926 0H212.707L212.68 0.221812L196.706 122.086ZM114.042 117.152L196.368 121.673L212.268 0.389143H122.291L114.042 117.152Z" fill="white"/>
<path d="M106.471 116.933L114.716 0.194336H0.201416L4.5354 111.33L106.471 116.933Z" fill="#2ECC71" fill-opacity="0.18"/>
<path d="M106.65 117.136L106.46 117.124L4.34563 111.517L4.33787 111.338L0 0H114.926L114.911 0.210137L106.65 117.136ZM4.72199 111.147L106.293 116.727L114.507 0.389143H0.403523L4.72199 111.147Z" fill="white"/>
<path d="M105.94 124.42L4.82642 118.864L8.78792 220.414H99.1615L105.94 124.42Z" fill="#2ECC71" fill-opacity="0.18"/>
<path d="M99.3441 220.609H8.60202L8.59426 220.422L4.625 118.657L4.8384 118.669L106.15 124.234L106.134 124.432L99.3441 220.609ZM8.97451 220.22H98.9794L105.735 124.604L5.02852 119.07L8.97451 220.22Z" fill="white"/>
<path d="M113.304 124.825L106.553 220.414H183.622L195.557 129.343L113.304 124.825Z" fill="#2ECC71" fill-opacity="0.18"/>
<path d="M183.793 220.609H106.348L106.363 220.399L113.13 124.619L113.32 124.631L195.782 129.16L183.793 220.609ZM106.763 220.22H183.451L195.34 129.526L113.487 125.028L106.763 220.22Z" fill="white"/>
</g>
<g clip-path="url(#clip1_595_5026)">
<path d="M232.632 127.795H142.464V171.098H232.632V127.795Z" fill="#F6C949"/>
<path d="M232.835 171.299H142.263V127.594H232.835V171.299ZM142.667 170.898H232.431V127.996H142.667V170.898Z" fill="#171725"/>
<path d="M233.961 117.864H151.952V132.214H233.961V117.864Z" fill="#F6C949"/>
<path d="M234.164 132.411H151.751V117.66H234.164V132.411ZM152.155 132.01H233.76V118.061H152.155V132.01Z" fill="#171725"/>
<path d="M135.925 301.209L125.564 318H167.436L143.628 303.955L140.865 300.892L135.925 301.209Z" fill="#171725"/>
<path d="M108.247 282.568L88.4292 282.897L110.913 318L110.056 290.504L111.171 286.542L108.247 282.568Z" fill="#171725"/>
<path d="M159.595 303.621H126.278V153.489L154.865 145.629L159.595 303.621Z" fill="#2347CF"/>
<path d="M159.596 303.822H126.279C126.166 303.822 126.077 303.734 126.077 303.622V153.489C126.077 153.401 126.137 153.32 126.226 153.296L154.813 145.437C154.874 145.421 154.938 145.433 154.987 145.469C155.035 145.505 155.068 145.561 155.068 145.626L159.798 303.618C159.798 303.67 159.778 303.726 159.741 303.762C159.701 303.802 159.648 303.822 159.596 303.822ZM126.481 303.421H159.39L154.672 145.89L126.481 153.642V303.421Z" fill="#2347CF"/>
<path d="M154.865 145.629C163.246 177.276 177.15 224.039 175.211 232.794C172.614 242.732 141.446 274.387 120.566 298.222L95.6304 276.86C112.216 256.272 135.811 229.976 135.811 223.152C135.661 212.768 112.071 190.361 112.071 171.102C112.22 158.615 115.521 153.601 119.099 145.432L119.968 142.855L152.138 142.96L154.865 145.629Z" fill="#4D6FF0"/>
<path d="M120.563 298.424C120.514 298.424 120.47 298.408 120.43 298.375L95.4982 277.009C95.4174 276.936 95.4053 276.816 95.474 276.732C99.3599 271.907 103.698 266.689 107.891 261.643C121.516 245.25 135.61 228.302 135.61 223.148C135.549 218.841 131.36 212.379 126.509 204.901C119.646 194.316 111.87 182.318 111.87 171.099C111.995 160.457 114.463 155.095 117.315 148.881C117.832 147.753 118.369 146.585 118.911 145.349L119.771 142.788C119.799 142.707 119.876 142.651 119.961 142.651L152.131 142.755C152.184 142.755 152.236 142.776 152.272 142.812L154.999 145.489C155.023 145.513 155.043 145.545 155.052 145.581C156.752 152 158.647 158.924 160.654 166.258C168.297 194.175 176.957 225.814 175.398 232.838C173.471 240.2 155.811 259.584 138.732 278.329C132.588 285.073 126.234 292.045 120.708 298.355C120.676 298.399 120.619 298.424 120.563 298.424ZM95.9102 276.832L120.543 297.938C126.04 291.664 132.342 284.748 138.437 278.056C155.484 259.347 173.112 239.999 175.01 232.738C176.545 225.814 167.897 194.227 160.27 166.354C158.267 159.04 156.376 152.132 154.68 145.73L152.05 143.149L120.11 143.049L119.286 145.489C118.737 146.745 118.2 147.918 117.679 149.045C114.726 155.472 112.395 160.546 112.27 171.099C112.27 182.197 120.013 194.139 126.844 204.68C131.728 212.21 135.945 218.717 136.01 223.144C136.01 228.447 122.502 244.696 108.198 261.9C104.054 266.893 99.7638 272.051 95.9102 276.832Z" fill="#4D6FF0"/>
<path d="M112.12 172.825V172.423C116.289 172.423 120.369 170.834 123.035 168.164C125.014 166.185 126.052 163.773 126.04 161.188L126.073 156.363H114.467V155.962H126.481L126.444 161.188C126.46 163.881 125.378 166.394 123.322 168.449C120.579 171.191 116.39 172.825 112.12 172.825Z" fill="#171725"/>
<path d="M115.61 157.551H114.803C114.689 157.551 114.601 157.463 114.601 157.35C114.601 157.238 114.689 157.15 114.803 157.15H115.61C115.724 157.15 115.812 157.238 115.812 157.35C115.812 157.463 115.724 157.551 115.61 157.551Z" fill="#171725"/>
<path d="M122.393 157.551H120.696C120.583 157.551 120.494 157.463 120.494 157.35C120.494 157.238 120.583 157.15 120.696 157.15H122.393C122.506 157.15 122.595 157.238 122.595 157.35C122.595 157.463 122.506 157.551 122.393 157.551ZM119.004 157.551H117.307C117.194 157.551 117.105 157.463 117.105 157.35C117.105 157.238 117.194 157.15 117.307 157.15H119.004C119.117 157.15 119.206 157.238 119.206 157.35C119.206 157.463 119.113 157.551 119.004 157.551Z" fill="#171725"/>
<path d="M124.885 158.358H124.881C124.768 158.354 124.683 158.261 124.683 158.153C124.687 157.956 124.691 157.756 124.691 157.555H124.085C123.972 157.555 123.883 157.467 123.883 157.354C123.883 157.242 123.972 157.154 124.085 157.154H124.893C125.006 157.154 125.095 157.242 125.095 157.354C125.095 157.627 125.091 157.896 125.087 158.165C125.083 158.269 124.994 158.358 124.885 158.358Z" fill="#171725"/>
<path d="M115.82 170.862C115.732 170.862 115.651 170.805 115.627 170.717C115.594 170.609 115.655 170.5 115.764 170.468C116.321 170.308 116.855 170.127 117.351 169.938C117.456 169.898 117.574 169.95 117.614 170.055C117.654 170.159 117.602 170.276 117.497 170.316C116.988 170.512 116.447 170.693 115.877 170.858C115.857 170.858 115.841 170.862 115.82 170.862ZM118.967 169.633C118.894 169.633 118.826 169.593 118.789 169.525C118.737 169.425 118.777 169.304 118.874 169.256C119.383 168.995 119.86 168.702 120.292 168.393C120.381 168.329 120.51 168.349 120.575 168.441C120.64 168.529 120.619 168.658 120.526 168.722C120.078 169.043 119.585 169.34 119.06 169.613C119.028 169.625 119 169.633 118.967 169.633ZM121.698 167.67C121.645 167.67 121.597 167.65 121.556 167.61C121.476 167.534 121.476 167.406 121.556 167.325C121.944 166.936 122.3 166.51 122.611 166.061C122.675 165.969 122.801 165.948 122.889 166.009C122.982 166.073 123.007 166.197 122.942 166.286C122.619 166.755 122.247 167.201 121.843 167.606C121.799 167.65 121.75 167.67 121.698 167.67ZM123.604 164.917C123.576 164.917 123.548 164.913 123.52 164.897C123.419 164.849 123.374 164.732 123.419 164.632C123.641 164.15 123.835 163.628 123.996 163.082C124.029 162.978 124.138 162.914 124.247 162.946C124.356 162.978 124.416 163.09 124.384 163.195C124.218 163.761 124.016 164.299 123.786 164.796C123.754 164.873 123.681 164.917 123.604 164.917ZM124.574 161.706C124.562 161.706 124.55 161.706 124.538 161.702C124.429 161.682 124.356 161.577 124.372 161.469C124.465 160.951 124.538 160.397 124.586 159.819C124.594 159.707 124.695 159.626 124.804 159.638C124.917 159.646 124.998 159.747 124.986 159.855C124.933 160.445 124.861 161.011 124.768 161.541C124.756 161.637 124.671 161.706 124.574 161.706Z" fill="#171725"/>
<path d="M113.373 171.44C113.276 171.44 113.195 171.371 113.175 171.275C113.155 171.167 113.227 171.062 113.336 171.038C113.603 170.986 113.866 170.934 114.124 170.878C114.233 170.854 114.342 170.922 114.366 171.03C114.391 171.139 114.322 171.247 114.213 171.271C113.954 171.327 113.688 171.383 113.417 171.436C113.401 171.44 113.389 171.44 113.373 171.44Z" fill="#171725"/>
<path d="M138.626 72.7507L144.798 74.9986L142.649 78.3664L137.701 75.9218L138.626 72.7507Z" fill="white"/>
<path d="M142.651 78.5674C142.622 78.5674 142.59 78.5594 142.562 78.5473L137.613 76.0988C137.525 76.0546 137.484 75.9583 137.508 75.8619L138.433 72.6949C138.45 72.6427 138.486 72.5985 138.534 72.5704C138.583 72.5464 138.643 72.5423 138.696 72.5624L144.868 74.8103C144.925 74.8303 144.969 74.8785 144.989 74.9347C145.01 74.9909 145.002 75.0551 144.969 75.1073L142.82 78.4751C142.784 78.5353 142.715 78.5674 142.651 78.5674ZM137.941 75.8178L142.574 78.1098L144.493 75.1073L138.761 73.02L137.941 75.8178Z" fill="#171725"/>
<path d="M150.337 46.3588L153.189 66.6577L149.453 66.9507V69.5559C139.419 71.3822 133.541 68.5122 130.997 63.8078C124.784 46.5073 135.747 43.3643 150.337 46.3588Z" fill="#171725"/>
<path d="M140.581 77.9326L130.345 74.9783L131.662 63.6667H140.868L140.581 77.9326Z" fill="#EC5E48"/>
<path d="M140.78 78.1979L130.128 75.1232L131.485 63.4705H141.079L140.78 78.1979ZM130.568 74.8302L140.388 77.6641L140.663 63.8678H131.841L130.568 74.8302Z" fill="#EC5E48"/>
<path d="M131.78 65.02C133.105 68.0145 137.04 68.8936 140.711 69.0943C140.711 69.0943 141.814 66.1439 141.624 66.0837C141.439 66.0235 131.78 65.02 131.78 65.02Z" fill="#171725"/>
<path d="M138.255 66.6571C131.581 66.6571 126.173 61.2823 126.173 54.6511V46.6191L150.336 46.3582V54.6511C150.336 61.2823 144.928 66.6571 138.255 66.6571Z" fill="#EC5E48"/>
<path d="M138.256 66.8583C131.481 66.8583 125.972 61.3832 125.972 54.6516V46.4229L150.539 46.158V54.6516C150.539 61.3832 145.03 66.8583 138.256 66.8583ZM126.376 46.8203V54.6516C126.376 61.1624 131.704 66.4569 138.256 66.4569C144.808 66.4569 150.136 61.1624 150.136 54.6516V46.5634L126.376 46.8203Z" fill="#EC5E48"/>
<path d="M138.489 35.3723H136.643C129.053 35.3723 122.897 41.4897 122.897 49.0321L119.576 68.4037L127.421 69.5598L127.542 59.3039L128.144 69.9532H130.834L129.219 54.4349C128.697 50.7741 140.19 50.3165 141.854 46.6276L143.429 47.8319C144.75 48.3898 148.204 48.4621 150.551 47.8278V47.1455C150.539 40.6387 145.033 35.3723 138.489 35.3723Z" fill="#171725"/>
<path d="M126.033 59.8927C128.227 59.247 129.363 56.5645 128.569 53.9012C127.776 51.2379 125.353 49.6023 123.159 50.248C120.964 50.8938 119.828 53.5763 120.622 56.2396C121.416 58.9029 123.838 60.5385 126.033 59.8927Z" fill="#EC5E48"/>
<path d="M125.051 60.2351C124.247 60.2351 123.439 59.9782 122.692 59.4725C121.629 58.758 120.829 57.63 120.429 56.2974C119.605 53.5317 120.805 50.7339 123.104 50.0555C125.402 49.3772 127.943 51.0791 128.767 53.8448C129.163 55.1774 129.11 56.5583 128.609 57.7304C128.104 58.9185 127.212 59.7534 126.089 60.0826C125.753 60.1829 125.402 60.2351 125.051 60.2351ZM124.142 50.3084C123.835 50.3084 123.524 50.3526 123.221 50.4409C121.136 51.055 120.058 53.632 120.817 56.185C121.189 57.4293 121.932 58.481 122.918 59.1433C123.891 59.7976 124.978 59.9983 125.98 59.7013C126.981 59.4082 127.785 58.6496 128.242 57.5778C128.702 56.49 128.755 55.2055 128.383 53.9612C127.733 51.7776 125.947 50.3084 124.142 50.3084Z" fill="#EC5E48"/>
<path d="M122.857 55.2699C122.845 55.2699 122.829 55.2699 122.817 55.2659C122.708 55.2418 122.639 55.1374 122.663 55.0291C122.986 53.5238 124.307 52.424 125.063 52.0828C125.164 52.0386 125.285 52.0828 125.329 52.1831C125.374 52.2835 125.329 52.4039 125.228 52.448C124.542 52.7571 123.346 53.7526 123.055 55.1134C123.035 55.2057 122.95 55.2699 122.857 55.2699Z" fill="#171725"/>
<path d="M125.657 56.1529C125.6 56.1529 125.543 56.1288 125.503 56.0847L123.512 53.8007C123.439 53.7164 123.447 53.592 123.532 53.5157C123.617 53.4434 123.742 53.4515 123.819 53.5358L125.81 55.8197C125.883 55.904 125.875 56.0285 125.79 56.1047C125.754 56.1369 125.705 56.1529 125.657 56.1529Z" fill="#171725"/>
<path d="M128.141 69.9492L126.573 47.9282H128.141L130.831 69.9492H128.141Z" fill="#171725"/>
<path d="M138.797 55.1774C139.35 55.1774 139.798 54.083 139.798 52.7329C139.798 51.3828 139.35 50.2883 138.797 50.2883C138.243 50.2883 137.795 51.3828 137.795 52.7329C137.795 54.083 138.243 55.1774 138.797 55.1774Z" fill="#171725"/>
<path d="M146.973 54.2102C147.43 54.2102 147.801 53.3332 147.801 52.2513C147.801 51.1695 147.43 50.2925 146.973 50.2925C146.515 50.2925 146.145 51.1695 146.145 52.2513C146.145 53.3332 146.515 54.2102 146.973 54.2102Z" fill="#171725"/>
<path d="M119.019 145.629H154.861L156.368 104.345C156.767 89.4367 144.419 76.1061 132.365 73.7539C124.723 70.0088 111.914 86.374 110.084 101.993C107.826 121.244 111.38 138.89 119.019 145.629Z" fill="white"/>
<path d="M155.06 145.83H118.947L118.891 145.778C111.224 139.018 107.609 121.413 109.891 101.965C110.541 96.4055 112.63 90.4125 115.764 85.0859C118.749 80.0202 122.425 76.0504 125.847 74.1999C128.29 72.8793 130.569 72.6545 132.435 73.5576C144.19 75.8657 156.987 89.0719 156.574 104.345L155.06 145.83ZM119.097 145.429H154.668L156.167 104.337C156.57 89.2525 143.927 76.2149 132.326 73.951L132.277 73.935C130.528 73.08 128.371 73.2927 126.036 74.5571C118.034 78.8843 111.43 92.251 110.287 102.017C108.025 121.288 111.567 138.713 119.097 145.429Z" fill="#171725"/>
<path d="M130.253 70.2898L126.338 74.1393L138.142 84.3108C138.162 84.3269 138.186 84.3188 138.198 84.2988L142.46 76.367L130.253 70.2898Z" fill="white"/>
<path d="M138.167 84.524C138.114 84.524 138.062 84.5039 138.017 84.4718L126.21 74.2922C126.17 74.2561 126.141 74.2039 126.141 74.1477C126.141 74.0915 126.162 74.0394 126.202 73.9992L130.116 70.1498C130.177 70.0896 130.27 70.0735 130.35 70.1136L142.562 76.1949C142.61 76.219 142.646 76.2631 142.663 76.3153C142.679 76.3675 142.675 76.4237 142.646 76.4719L138.385 84.4036C138.357 84.4558 138.284 84.5119 138.223 84.524C138.203 84.52 138.183 84.524 138.167 84.524ZM138.025 84.2029C138.025 84.2069 138.021 84.2069 138.021 84.2109L138.025 84.2029ZM126.638 74.1317L138.122 84.0262L142.19 76.4558L130.294 70.5351L126.638 74.1317Z" fill="#171725"/>
<path d="M186.085 146.44L198.046 155.383C200.146 156.868 201.657 156.535 203.584 157.374C204.888 157.872 207.7 162.998 210.826 165.695C210.653 166.651 210.156 167.305 208.532 166.907C206.714 166.366 204.472 164.796 202.497 162.207C202.222 161.89 201.584 162.127 201.867 162.789C203.147 165.659 204.662 170.03 204.105 171.178C202.78 172.607 201.633 173.707 199.783 173.671C198.324 174.699 196.648 175.172 194.62 174.739C193.311 175.305 192.213 175.754 190.75 174.739C187.975 172.254 186.901 167.06 187.236 161.629L178.491 154.432L186.085 146.44Z" fill="#EC5E48"/>
<path d="M192.493 175.546C191.919 175.546 191.309 175.374 190.635 174.904C188.021 172.564 186.68 167.647 187.028 161.722L178.193 154.457L186.062 146.172L198.164 155.223C199.408 156.102 200.422 156.323 201.497 156.552C202.179 156.7 202.89 156.853 203.658 157.186C204.328 157.439 205.29 158.732 206.514 160.365C207.77 162.051 209.337 164.146 210.953 165.539L211.038 165.616L211.018 165.728C210.905 166.346 210.678 166.743 210.307 166.984C209.879 167.257 209.281 167.297 208.473 167.101C206.409 166.483 204.171 164.745 202.325 162.328C202.26 162.252 202.143 162.252 202.074 162.296C201.969 162.36 201.957 162.517 202.042 162.709C203.1 165.078 204.93 169.919 204.276 171.263L204.244 171.311C202.903 172.761 201.727 173.872 199.861 173.872C199.853 173.872 199.845 173.872 199.837 173.872C198.229 174.988 196.528 175.338 194.634 174.948C193.931 175.257 193.24 175.546 192.493 175.546ZM178.787 154.42L187.448 161.545L187.44 161.646C187.08 167.494 188.369 172.335 190.885 174.591C192.259 175.542 193.264 175.109 194.541 174.555L194.602 174.531L194.666 174.543C196.488 174.932 198.128 174.595 199.667 173.507L199.719 173.467H199.788C201.533 173.503 202.608 172.492 203.933 171.063C204.365 170.059 203.137 166.125 201.679 162.866C201.481 162.4 201.646 162.087 201.864 161.951C202.115 161.798 202.45 161.846 202.644 162.067C204.446 164.427 206.611 166.117 208.586 166.707C209.269 166.876 209.766 166.856 210.093 166.643C210.343 166.483 210.505 166.202 210.602 165.764C208.986 164.343 207.439 162.272 206.191 160.602C205.056 159.085 204.074 157.772 203.508 157.555C202.765 157.234 202.079 157.086 201.412 156.941C200.346 156.712 199.239 156.472 197.926 155.54L186.107 146.701L178.787 154.42Z" fill="#EC5E48"/>
<path d="M194.622 174.94C194.549 174.94 194.48 174.9 194.444 174.832C193.567 173.182 192.622 170.878 192.606 169.369C192.606 169.256 192.695 169.168 192.804 169.164C192.913 169.16 193.006 169.252 193.01 169.361C193.026 170.802 193.987 173.106 194.803 174.639C194.856 174.735 194.82 174.86 194.719 174.912C194.686 174.932 194.654 174.94 194.622 174.94Z" fill="#171725"/>
<path d="M199.784 173.873C199.736 173.873 199.687 173.857 199.651 173.82C198.665 172.945 197.364 168.915 197.308 168.743C197.276 168.638 197.332 168.526 197.441 168.49C197.546 168.454 197.659 168.514 197.696 168.618C197.708 168.658 199.017 172.713 199.921 173.515C200.006 173.588 200.01 173.716 199.938 173.8C199.893 173.848 199.841 173.873 199.784 173.873Z" fill="#171725"/>
<path d="M192.399 140.828L176.189 160.758C150.345 143.197 127.138 125.262 124.125 103.98C122.452 87.7709 139.737 83.2029 144.799 92.2064C153.815 108.411 172.586 124.339 192.399 140.828Z" fill="white"/>
<path d="M176.23 161.027L176.077 160.923C151.392 144.148 127.03 125.937 123.924 104.008C123.5 99.9098 124.267 96.2169 126.141 93.3107C127.777 90.7779 130.233 88.8953 133.057 88.0082C137.945 86.4749 142.731 88.1206 144.973 92.1065C154.284 108.841 174.602 125.752 192.525 140.672L192.679 140.801L176.23 161.027ZM136.652 87.8436C135.525 87.8436 134.358 88.0203 133.178 88.3895C128.504 89.8547 123.378 94.812 124.324 103.96C127.402 125.676 151.59 143.791 176.15 160.486L192.117 140.853C174.203 125.941 153.941 109.054 144.622 92.3032C143.014 89.4452 140.025 87.8436 136.652 87.8436Z" fill="#171725"/>
</g>
<path d="M3.34521 318H349" stroke="#171725"/>
<defs>
<clipPath id="clip0_595_5026">
<rect width="212.711" height="220.609" fill="white"/>
</clipPath>
<clipPath id="clip1_595_5026">
<rect width="148.897" height="282.628" fill="white" transform="translate(88.4292 35.3723)"/>
</clipPath>
</defs>
</svg>
